/* XPM */
static char * doom_green2_xpm[] = {
"64 64 256 2",
"  	c #000000",
". 	c #0000FF",
"+ 	c #00FF00",
"@ 	c #FF0000",
"# 	c #00FFFF",
"$ 	c #FFFF00",
"% 	c #FF00FF",
"& 	c #FFFFFF",
"* 	c #7B7B7B",
"= 	c #7B7B7B",
"- 	c #7B7B7B",
"; 	c #7B7B7B",
"> 	c #7B7B7B",
", 	c #7B7B7B",
"' 	c #7B7B7B",
") 	c #7B7B7B",
"! 	c #7B7B7B",
"~ 	c #7B7B7B",
"{ 	c #7B7B7B",
"] 	c #7B7B7B",
"^ 	c #7B7B7B",
"/ 	c #7B7B7B",
"( 	c #7B7B7B",
"_ 	c #7B7B7B",
": 	c #7B7B7B",
"< 	c #7B7B7B",
"[ 	c #7B7B7B",
"} 	c #7B7B7B",
"| 	c #7B7B7B",
"1 	c #7B7B7B",
"2 	c #7B7B7B",
"3 	c #7B7B7B",
"4 	c #7B7B7B",
"5 	c #7B7B7B",
"6 	c #7B7B7B",
"7 	c #7B7B7B",
"8 	c #7B7B7B",
"9 	c #7B7B7B",
"0 	c #7B7B7B",
"a 	c #7B7B7B",
"b 	c #7B7B7B",
"c 	c #7B7B7B",
"d 	c #7B7B7B",
"e 	c #7B7B7B",
"f 	c #7B7B7B",
"g 	c #7B7B7B",
"h 	c #7B7B7B",
"i 	c #7B7B7B",
"j 	c #7B7B7B",
"k 	c #7B7B7B",
"l 	c #7B7B7B",
"m 	c #7B7B7B",
"n 	c #7B7B7B",
"o 	c #7B7B7B",
"p 	c #7B7B7B",
"q 	c #7B7B7B",
"r 	c #7B7B7B",
"s 	c #7B7B7B",
"t 	c #7B7B7B",
"u 	c #7B7B7B",
"v 	c #7B7B7B",
"w 	c #7B7B7B",
"x 	c #7B7B7B",
"y 	c #7B7B7B",
"z 	c #7B7B7B",
"A 	c #7B7B7B",
"B 	c #7B7B7B",
"C 	c #7B7B7B",
"D 	c #7B7B7B",
"E 	c #7B7B7B",
"F 	c #7B7B7B",
"G 	c #7B7B7B",
"H 	c #7B7B7B",
"I 	c #7B7B7B",
"J 	c #7B7B7B",
"K 	c #7B7B7B",
"L 	c #7B7B7B",
"M 	c #7B7B7B",
"N 	c #7B7B7B",
"O 	c #7B7B7B",
"P 	c #7B7B7B",
"Q 	c #7B7B7B",
"R 	c #7B7B7B",
"S 	c #7B7B7B",
"T 	c #7B7B7B",
"U 	c #7B7B7B",
"V 	c #7B7B7B",
"W 	c #7B7B7B",
"X 	c #7B7B7B",
"Y 	c #7B7B7B",
"Z 	c #7B7B7B",
"` 	c #7B7B7B",
" .	c #7B7B7B",
"..	c #7B7B7B",
"+.	c #7B7B7B",
"@.	c #7B7B7B",
"#.	c #7B7B7B",
"$.	c #7B7B7B",
"%.	c #7B7B7B",
"&.	c #7B7B7B",
"*.	c #7B7B7B",
"=.	c #7B7B7B",
"-.	c #7B7B7B",
";.	c #7B7B7B",
">.	c #7B7B7B",
",.	c #7B7B7B",
"'.	c #7B7B7B",
").	c #7B7B7B",
"!.	c #7B7B7B",
"~.	c #7B7B7B",
"{.	c #7B7B7B",
"].	c #7B7B7B",
"^.	c #7B7B7B",
"/.	c #7B7B7B",
"(.	c #7B7B7B",
"_.	c #7B7B7B",
":.	c #7B7B7B",
"<.	c #7B7B7B",
"[.	c #7B7B7B",
"}.	c #7B7B7B",
"|.	c #7B7B7B",
"1.	c #7B7B7B",
"2.	c #7B7B7B",
"3.	c #7B7B7B",
"4.	c #7B7B7B",
"5.	c #7B7B7B",
"6.	c #7B7B7B",
"7.	c #7B7B7B",
"8.	c #7B7B7B",
"9.	c #7B7B7B",
"0.	c #7B7B7B",
"a.	c #7B7B7B",
"b.	c #7B7B7B",
"c.	c #7B7B7B",
"d.	c #7B7B7B",
"e.	c #7B7B7B",
"f.	c #7B7B7B",
"g.	c #7B7B7B",
"h.	c #7B7B7B",
"i.	c #7B7B7B",
"j.	c #7B7B7B",
"k.	c #7B7B7B",
"l.	c #7B7B7B",
"m.	c #7B7B7B",
"n.	c #7B7B7B",
"o.	c #7B7B7B",
"p.	c #7B7B7B",
"q.	c #7B7B7B",
"r.	c #7B7B7B",
"s.	c #7B7B7B",
"t.	c #7B7B7B",
"u.	c #7B7B7B",
"v.	c #7B7B7B",
"w.	c #7B7B7B",
"x.	c #7B7B7B",
"y.	c #7B7B7B",
"z.	c #7B7B7B",
"A.	c #7B7B7B",
"B.	c #7B7B7B",
"C.	c #7B7B7B",
"D.	c #7B7B7B",
"E.	c #7B7B7B",
"F.	c #7B7B7B",
"G.	c #7B7B7B",
"H.	c #7B7B7B",
"I.	c #7B7B7B",
"J.	c #7B7B7B",
"K.	c #7B7B7B",
"L.	c #7B7B7B",
"M.	c #7B7B7B",
"N.	c #7B7B7B",
"O.	c #7B7B7B",
"P.	c #7B7B7B",
"Q.	c #7B7B7B",
"R.	c #7B7B7B",
"S.	c #7B7B7B",
"T.	c #7B7B7B",
"U.	c #7B7B7B",
"V.	c #7B7B7B",
"W.	c #7B7B7B",
"X.	c #7B7B7B",
"Y.	c #7B7B7B",
"Z.	c #7B7B7B",
"`.	c #7B7B7B",
" +	c #7B7B7B",
".+	c #7B7B7B",
"++	c #7B7B7B",
"@+	c #7B7B7B",
"#+	c #7B7B7B",
"$+	c #7B7B7B",
"%+	c #7B7B7B",
"&+	c #7B7B7B",
"*+	c #7B7B7B",
"=+	c #7B7B7B",
"-+	c #7B7B7B",
";+	c #7B7B7B",
">+	c #7B7B7B",
",+	c #7B7B7B",
"'+	c #7B7B7B",
")+	c #7B7B7B",
"!+	c #7B7B7B",
"~+	c #7B7B7B",
"{+	c #7B7B7B",
"]+	c #7B7B7B",
"^+	c #7B7B7B",
"/+	c #7B7B7B",
"(+	c #7B7B7B",
"_+	c #7B7B7B",
":+	c #7B7B7B",
"<+	c #7B7B7B",
"[+	c #7B7B7B",
"}+	c #7B7B7B",
"|+	c #7B7B7B",
"1+	c #7B7B7B",
"2+	c #7B7B7B",
"3+	c #7B7B7B",
"4+	c #7B7B7B",
"5+	c #7B7B7B",
"6+	c #7B7B7B",
"7+	c #7B7B7B",
"8+	c #7B7B7B",
"9+	c #7B7B7B",
"0+	c #7B7B7B",
"a+	c #7B7B7B",
"b+	c #7B7B7B",
"c+	c #7B7B7B",
"d+	c #7B7B7B",
"e+	c #7B7B7B",
"f+	c #7B7B7B",
"g+	c #7B7B7B",
"h+	c #7B7B7B",
"i+	c #7B7B7B",
"j+	c #7B7B7B",
"k+	c #7B7B7B",
"l+	c #7B7B7B",
"m+	c #7B7B7B",
"n+	c #7B7B7B",
"o+	c #4A3920",
"p+	c #292929",
"q+	c #313920",
"r+	c #414A31",
"s+	c #293118",
"t+	c #393939",
"u+	c #523929",
"v+	c #394129",
"w+	c #525239",
"x+	c #312910",
"y+	c #202908",
"z+	c #5A6241",
"A+	c #6A5241",
"B+	c #081000",
"C+	c #181818",
"D+	c #392918",
"E+	c #5A4A31",
"F+	c #626A4A",
"G+	c #181008",
"q+q+q+v+v+q+q+v+v+v+v+v+v+v+r+r+v+q+q+q+v+q+q+v+v+q+q+v+v+v+v+v+q+v+r+r+v+q+v+r+r+r+r+r+r+r+r+r+r+v+v+v+v+r+r+r+r+r+r+r+r+v+v+o+",
"p+p+p+v+v+q+q+v+v+v+v+q+q+v+v+r+v+q+q+q+q+q+v+v+v+q+x+q+q+q+q+v+q+q+r+v+v+q+q+r+r+r+r+r+r+r+r+r+r+q+q+q+v+r+r+r+r+r+r+r+v+v+r+r+",
"r+v+v+v+v+v+v+q+v+v+v+v+y+q+v+r+r+r+v+q+q+q+v+v+q+q+x+x+x+x+q+q+q+q+p+v+v+q+q+r+r+r+r+r+r+r+r+r+r+q+y+q+r+r+v+q+r+r+r+v+q+D+r+r+",
"r+r+v+r+r+r+q+q+v+r+r+r+q+y+r+r+r+r+r+v+r+v+v+q+v+q+q+x+G+x+x+q+q+q+q+r+r+r+q+q+r+w+E+w+w+r+r+r+r+q+q+r+r+r+r+r+r+r+v+q+v+v+r+r+",
"r+r+r+r+r+v+q+q+v+v+v+r+q+y+v+r+r+r+r+r+u+r+r+v+v+v+q+x+x+G+x+x+x+q+q+r+r+r+v+q+r+r+w+w+z+w+r+r+v+v+r+w+r+r+E+w+w+r+v+q+q+v+r+r+",
"r+v+v+v+v+q+q+v+v+v+v+q+y+y+y+v+r+r+r+r+r+r+r+v+v+v+v+x+x+x+x+x+q+x+q+r+r+r+r+v+r+w+w+F+z+w+w+r+v+v+r+w+w+E+r+E+A+r+v+D+q+D+r+r+",
"v+q+q+q+q+y+y+q+q+q+q+v+v+v+q+y+r+r+r+r+r+r+v+r+v+v+r+q+x+x+x+q+v+q+v+r+r+r+r+r+r+z+F+z+w+w+r+v+q+v+r+A+w+r+r+w+w+D+x+v+q+y+r+r+",
"q+y+y+y+q+q+q+q+q+v+v+r+r+r+q+q+v+r+r+r+r+r+r+r+v+v+v+q+q+y+x+q+q+v+v+v+w+w+r+r+w+z+z+w+w+E+v+q+y+v+r+w+w+r+r+r+r+q+v+q+x+y+q+q+",
"y+y+y+q+r+r+r+r+r+r+r+r+r+r+r+v+q+r+r+r+r+r+r+r+v+v+q+q+q+y+x+q+y+q+r+v+r+r+r+r+w+w+r+w+w+r+y+q+y+r+r+r+r+w+r+q+v+v+r+q+x+v+x+q+",
"y+y+y+q+r+w+r+r+r+r+r+r+r+r+r+v+q+v+r+r+v+v+r+r+v+q+q+r+v+x+y+v+x+x+q+q+q+r+r+r+r+r+r+w+r+q+y+y+v+r+w+r+r+w+r+q+y+q+v+x+q+r+v+v+",
"q+q+y+q+r+w+r+r+r+r+u+r+r+r+r+v+q+r+r+r+v+r+r+r+q+q+v+r+v+y+q+q+q+y+x+y+v+v+r+r+r+r+r+r+q+y+y+y+q+r+r+r+r+r+r+v+q+y+B+y+r+r+y+q+",
"v+v+q+y+v+r+r+r+u+r+r+r+r+r+r+v+q+y+q+v+r+r+r+v+q+v+v+v+v+q+v+v+r+q+B+x+q+v+r+r+r+r+r+q+y+y+G+y+q+v+v+v+r+r+v+q+q+y+y+y+r+r+q+q+",
"r+r+v+q+q+v+r+r+r+r+r+r+r+u+r+q+y+y+y+q+v+r+r+q+q+q+u+v+v+q+q+v+v+v+x+B+x+q+r+r+r+r+v+q+G+y+q+q+r+v+q+v+r+r+r+q+p+r+t+q+q+r+v+p+",
"r+r+r+q+G+q+r+r+r+r+r+r+r+r+q+q+y+G+y+q+r+r+q+q+y+q+v+q+v+v+q+v+t+y+x+q+v+q+v+v+r+r+q+y+q+q+r+r+r+r+r+v+x+v+r+v+q+v+r+v+q+v+v+q+",
"v+u+r+q+q+q+v+r+r+r+r+r+v+q+G+y+y+y+G+q+r+y+y+G+y+v+q+q+q+x+q+v+q+y+y+r+w+r+q+q+q+q+q+v+r+r+r+r+w+r+r+v+q+x+q+r+v+q+q+v+v+v+q+v+",
"v+v+v+q+q+r+v+r+q+q+q+q+q+y+y+q+q+y+G+y+q+q+p+q+y+t+q+x+v+x+q+q+y+q+q+v+r+A+v+x+y+q+r+r+r+r+w+r+w+w+r+v+q+q+p+r+r+q+q+v+v+v+q+v+",
"v+v+v+v+q+r+r+u+u+v+q+q+q+q+q+q+q+q+y+y+y+x+x+q+v+v+v+v+r+q+x+y+y+q+v+v+r+r+r+q+G+y+v+r+E+r+r+r+z+w+r+q+G+C+q+v+r+v+v+v+v+q+q+v+",
"v+q+u+u+v+r+r+r+r+r+v+v+r+u+u+r+r+q+y+y+y+y+y+q+q+x+q+q+r+r+q+q+x+q+r+r+q+v+q+y+G+B+q+r+w+r+r+r+w+r+r+q+G+q+q+v+v+v+v+q+q+v+v+r+",
"v+q+v+q+r+r+r+r+r+u+r+r+v+r+r+r+r+q+q+x+y+y+q+q+x+q+q+q+r+r+q+q+q+v+w+r+v+v+q+G+G+B+q+v+r+r+r+E+w+r+r+q+p+r+v+q+v+q+v+q+q+v+v+r+",
"v+q+v+q+v+r+r+r+r+r+r+q+v+r+r+w+r+q+x+x+p+q+y+q+q+p+p+v+r+q+q+t+r+v+r+q+x+r+q+B+B+y+q+q+r+r+r+r+r+r+r+v+v+r+r+r+v+u+v+r+r+r+r+r+",
"v+q+q+q+r+r+v+r+r+r+r+q+q+r+r+E+r+y+C+x+y+q+q+y+v+p+q+v+v+q+v+r+q+x+v+y+x+v+x+y+y+G+y+q+v+v+r+r+r+r+r+r+r+r+r+v+v+v+v+v+v+r+r+r+",
"v+x+x+q+r+r+r+r+r+r+r+r+v+r+r+r+r+p+C+x+x+q+p+q+q+v+q+q+v+v+v+q+q+v+q+v+r+r+x+x+y+G+C+C+q+q+u+r+r+r+r+r+r+r+q+q+v+v+v+v+v+r+v+v+",
"q+x+x+y+q+r+u+r+r+r+u+r+r+v+r+r+r+y+C+x+q+q+v+v+p+v+q+q+v+v+v+q+v+v+r+v+r+v+x+y+y+C+G+p+p+q+r+v+r+r+r+r+r+r+v+y+q+q+u+u+r+q+q+y+",
"v+q+q+v+v+r+u+r+r+r+r+r+r+v+v+r+r+q+x+y+v+v+v+v+t+q+q+q+q+v+v+v+v+v+r+q+r+q+G+q+y+x+p+p+q+v+v+r+r+r+r+r+r+r+r+q+y+q+v+v+v+q+y+q+",
"r+v+q+v+v+r+r+u+r+r+r+u+r+r+v+v+q+q+x+q+q+r+r+v+v+r+r+v+v+q+q+v+v+q+v+q+r+w+q+q+q+p+x+q+v+r+r+r+r+r+u+r+r+r+v+v+q+y+q+q+q+y+y+q+",
"v+v+v+v+r+r+r+u+u+r+r+v+r+u+r+v+q+q+y+q+q+r+r+v+v+r+r+v+v+q+q+v+q+v+x+q+r+r+p+q+G+q+q+q+q+r+r+r+r+u+r+r+r+v+v+v+q+y+y+y+q+v+v+v+",
"v+p+D+v+v+u+r+r+r+r+r+v+r+r+r+r+q+y+v+p+q+r+r+q+v+r+r+r+v+q+q+v+q+v+q+q+r+v+x+q+G+x+p+y+y+r+r+r+w+v+r+r+r+r+v+q+q+y+y+q+v+r+r+r+",
"v+D+q+v+r+r+r+r+r+r+u+r+v+r+r+r+q+q+q+v+v+r+v+r+r+u+v+r+r+v+q+p+q+v+q+q+q+v+p+x+G+y+v+q+G+q+r+r+r+r+v+v+r+q+q+q+y+y+x+q+v+r+u+r+",
"v+D+q+v+v+r+r+r+r+r+u+r+v+v+E+r+q+q+q+q+q+v+r+r+r+r+v+v+r+r+q+v+v+q+q+p+D+r+v+x+y+y+q+q+y+q+r+r+r+r+q+q+q+y+G+r+v+q+y+q+u+r+u+r+",
"v+q+v+v+v+r+r+r+r+v+v+r+v+v+r+r+q+q+q+q+q+q+v+r+r+r+v+v+x+C+q+q+v+v+q+v+r+v+v+q+y+y+q+q+q+q+q+r+r+r+v+q+y+q+r+u+r+q+q+v+v+r+r+u+",
"v+p+q+q+q+v+r+r+r+v+q+v+r+v+r+v+q+q+q+q+u+v+q+v+r+v+r+r+v+x+C+q+r+q+v+r+r+r+v+v+y+y+y+q+q+q+y+q+v+r+v+y+q+v+v+v+q+q+q+v+r+r+r+u+",
"v+q+x+C+y+q+r+r+v+q+q+v+v+v+v+q+q+v+v+q+v+v+v+q+v+v+v+r+r+q+x+q+v+q+v+r+r+r+q+q+y+y+q+q+q+q+q+y+q+q+r+q+q+u+u+v+q+q+q+v+v+u+r+r+",
"v+q+v+r+r+r+q+q+y+y+q+q+q+q+q+y+q+q+r+q+q+u+u+v+q+q+q+v+v+u+r+r+p+p+p+v+v+q+q+q+y+q+q+q+q+q+q+q+q+q+q+q+q+q+r+r+v+v+v+r+r+v+v+r+",
"r+v+v+r+r+r+v+v+y+y+y+q+q+q+y+q+v+r+v+y+q+v+v+v+q+q+q+v+r+r+r+u+t+v+v+v+v+v+v+q+q+v+v+v+y+q+r+r+v+r+v+q+q+q+v+r+r+v+v+r+v+v+r+r+",
"r+v+v+v+r+v+v+q+y+y+q+q+q+q+q+r+r+r+v+q+y+q+r+u+r+q+q+v+v+r+r+u+v+v+v+r+r+r+q+q+q+v+r+r+q+y+r+r+r+r+r+v+r+v+q+q+v+r+v+v+q+D+r+r+",
"v+v+q+p+D+r+v+x+y+y+q+q+y+q+r+r+r+r+q+q+q+y+G+r+v+q+y+q+u+r+u+r+v+r+r+r+r+v+q+q+v+v+v+r+q+y+v+r+r+r+r+r+u+r+r+r+r+r+v+q+v+v+r+r+",
"r+v+q+q+q+v+p+x+G+y+v+q+G+q+r+r+r+r+v+v+r+q+q+q+y+y+x+q+v+r+u+r+v+v+v+v+v+q+q+v+v+v+v+q+y+y+y+v+r+r+r+r+r+r+w+w+w+r+v+q+q+v+r+r+",
"v+v+q+q+r+v+x+q+G+x+p+y+y+r+r+r+w+v+r+r+r+r+v+q+q+y+y+q+v+r+r+r+r+q+q+q+q+y+y+q+q+y+q+v+v+v+q+y+r+r+r+r+r+r+E+E+A+r+v+D+q+D+r+r+",
"q+v+x+q+r+r+p+q+G+q+q+q+q+r+r+r+r+u+r+r+r+v+v+v+q+y+y+y+q+v+v+v+q+y+y+y+q+q+q+y+y+v+v+r+r+r+q+y+v+r+r+r+r+r+w+w+w+D+x+v+q+y+r+v+",
"v+q+v+q+r+w+q+q+q+p+x+q+v+r+r+r+r+r+u+r+r+r+v+v+q+y+q+q+q+y+y+q+y+y+y+q+r+r+r+r+r+r+r+r+r+r+r+v+y+r+r+r+r+r+r+r+r+q+v+q+x+y+q+q+",
"v+v+r+q+r+q+G+q+y+x+p+p+q+v+v+r+r+r+r+r+r+r+r+q+y+q+v+v+v+q+y+q+y+y+y+q+r+w+r+r+r+r+r+r+r+r+r+v+q+v+r+r+v+v+q+q+v+v+r+q+x+v+x+q+",
"v+v+r+v+r+v+x+y+y+C+G+p+p+q+r+v+r+r+r+r+r+r+v+y+q+q+u+u+r+q+q+y+q+q+y+q+r+w+r+r+r+r+u+r+r+r+r+v+q+r+r+r+v+r+q+q+y+q+v+x+q+r+v+v+",
"q+v+q+v+r+r+x+x+y+G+C+C+q+q+u+r+r+r+r+r+r+r+q+q+v+v+v+v+v+r+v+q+r+r+q+y+v+r+r+r+u+r+r+r+r+r+r+v+q+y+q+v+r+r+v+v+q+y+B+y+r+r+y+q+",
"q+x+v+y+x+v+x+y+y+G+y+q+v+v+r+r+r+r+r+r+r+r+r+v+v+v+v+v+v+r+r+r+r+r+v+q+q+v+r+r+r+r+r+r+r+u+r+q+y+y+y+q+v+r+q+q+q+y+y+y+r+r+q+q+",
"r+v+r+q+x+r+q+B+B+y+q+q+r+r+r+r+r+r+r+v+v+r+r+r+v+u+v+r+r+r+r+r+r+r+r+q+G+q+r+r+r+r+r+r+r+r+q+q+y+G+y+q+r+r+q+q+p+r+t+q+q+r+v+p+",
"q+v+w+r+v+v+q+G+G+B+q+v+r+r+r+E+w+r+r+q+p+r+v+q+v+q+v+q+q+v+v+r+v+u+r+q+q+q+v+r+r+r+r+r+v+q+G+y+y+y+G+q+r+y+v+v+q+v+r+v+q+v+v+q+",
"x+q+r+r+q+v+q+y+G+B+q+r+w+r+r+r+w+r+r+q+G+q+q+v+v+v+v+q+q+v+v+r+v+v+v+q+q+r+v+r+q+q+q+q+q+y+y+q+q+y+G+y+q+q+r+r+v+q+q+v+v+v+q+q+",
"r+r+v+v+r+r+r+q+G+y+v+r+E+r+r+r+z+w+r+q+G+C+q+v+r+v+v+v+v+q+q+q+v+v+v+v+q+r+r+u+u+v+q+q+q+q+q+q+q+q+y+y+y+x+r+r+r+q+q+v+v+v+q+q+",
"v+r+q+v+r+A+r+x+y+q+r+r+r+r+w+r+w+w+r+v+q+q+p+r+r+q+q+v+v+v+q+q+v+q+u+u+v+r+r+r+r+r+v+v+r+u+u+r+r+q+y+y+y+y+v+v+r+v+v+v+v+q+q+q+",
"q+v+v+r+w+w+q+q+q+q+q+v+r+r+r+r+w+r+r+v+q+x+q+r+v+q+q+v+v+v+q+q+v+q+v+q+r+r+r+r+r+u+r+r+v+r+r+r+r+q+q+x+y+y+v+v+v+v+v+q+q+v+v+r+",
"t+r+x+q+r+q+v+v+r+r+q+y+q+q+r+r+r+r+r+v+x+v+r+v+q+v+r+v+q+v+v+q+q+q+v+q+v+r+r+r+r+r+r+q+v+r+r+w+r+q+x+q+y+y+y+q+r+r+r+r+r+r+v+q+",
"v+v+x+B+x+q+r+r+r+r+v+q+G+y+q+q+r+v+q+v+r+r+r+q+p+r+t+q+q+r+v+p+v+q+q+q+r+r+v+r+r+r+r+q+q+r+r+E+r+y+C+y+y+G+y+q+v+v+v+r+r+v+q+q+",
"r+q+B+x+q+v+r+r+r+r+r+q+y+y+G+y+q+v+v+v+r+r+v+q+q+y+y+y+r+r+q+q+q+q+q+r+r+q+q+q+v+v+r+r+r+r+r+v+q+q+v+r+y+q+q+r+v+q+v+r+r+r+q+p+",
"q+y+x+y+v+v+r+r+r+r+r+r+q+y+y+y+q+r+r+r+r+r+r+v+q+y+B+y+r+r+y+q+p+p+v+r+q+q+t+r+v+r+r+r+E+A+r+v+D+q+D+r+q+r+r+r+r+r+v+x+v+r+v+q+",
"x+x+q+q+q+r+r+r+r+r+r+w+r+q+y+y+v+r+w+r+r+w+r+q+y+q+v+x+q+r+v+v+p+q+v+v+q+v+r+q+x+v+r+r+w+r+D+x+v+q+y+r+r+r+r+w+r+r+v+q+x+q+r+v+",
"y+q+r+v+r+r+r+r+w+w+r+w+w+r+y+q+y+r+r+r+r+w+r+q+v+v+r+q+x+v+x+q+v+q+q+v+v+v+q+q+v+q+r+r+r+r+q+v+q+x+y+q+r+w+r+w+w+r+v+q+q+p+r+r+",
"q+v+v+v+w+w+r+r+w+z+z+w+w+E+v+q+y+v+r+w+w+r+r+r+r+q+v+q+x+y+q+q+v+q+q+v+v+v+q+v+v+r+w+r+q+v+v+r+q+x+v+x+r+r+r+z+w+r+q+G+C+q+v+r+",
"v+q+v+r+r+r+r+r+r+z+F+z+w+w+r+v+q+v+r+A+w+r+r+w+w+D+x+v+q+y+r+r+q+q+q+q+v+v+v+v+v+r+w+r+q+y+q+v+x+q+r+v+r+r+r+w+r+r+q+G+q+q+v+v+",
"v+x+q+r+r+r+r+v+r+w+w+F+z+w+w+r+v+v+r+w+w+E+r+E+A+r+v+D+q+D+r+r+r+r+v+v+q+q+v+v+q+v+r+r+v+q+y+B+y+r+r+y+r+r+E+w+r+r+v+p+r+v+q+v+",
"x+v+q+r+r+r+v+q+r+r+w+w+z+w+r+r+r+v+r+w+r+r+E+w+w+r+v+q+q+v+r+r+r+r+v+v+q+q+v+q+v+x+r+v+q+q+y+y+y+r+r+q+r+r+r+r+r+r+r+r+r+r+r+v+",
"x+q+q+r+r+r+q+q+r+r+E+w+w+r+r+r+r+q+q+r+r+r+r+r+r+r+v+q+v+v+v+r+r+r+r+v+q+q+v+q+v+q+r+r+q+p+r+t+q+q+r+v+v+r+r+r+r+r+r+r+r+r+v+v+",
"q+q+p+v+v+q+q+v+r+r+r+r+r+r+r+r+r+q+y+q+r+r+v+q+r+r+r+v+q+D+r+r+u+v+r+r+v+v+v+v+v+q+v+r+v+q+v+r+v+q+v+v+q+u+r+r+r+r+r+r+r+q+q+v+",
"q+q+r+v+v+q+q+r+r+r+r+r+r+r+r+r+r+q+q+q+v+v+r+r+r+r+r+r+v+v+r+r+r+r+r+r+r+r+r+r+r+v+x+q+r+v+q+q+v+v+v+q+q+r+r+r+r+r+r+r+r+v+y+q+",
"q+v+r+r+v+q+v+v+r+r+r+r+r+r+r+r+r+q+y+y+y+q+r+r+r+r+v+r+r+v+v+v+r+r+r+r+r+u+r+r+r+v+v+p+r+r+q+q+v+v+v+q+q+v+r+r+r+r+r+r+v+v+q+q+"};
