/* XPM */
static char * doom_moss_xpm[] = {
"64 64 256 2",
"  	c #000000",
". 	c #0000FF",
"+ 	c #00FF00",
"@ 	c #FF0000",
"# 	c #00FFFF",
"$ 	c #FFFF00",
"% 	c #FF00FF",
"& 	c #FFFFFF",
"* 	c #7B7B7B",
"= 	c #7B7B7B",
"- 	c #7B7B7B",
"; 	c #7B7B7B",
"> 	c #7B7B7B",
", 	c #7B7B7B",
"' 	c #7B7B7B",
") 	c #7B7B7B",
"! 	c #7B7B7B",
"~ 	c #7B7B7B",
"{ 	c #7B7B7B",
"] 	c #7B7B7B",
"^ 	c #7B7B7B",
"/ 	c #7B7B7B",
"( 	c #7B7B7B",
"_ 	c #7B7B7B",
": 	c #7B7B7B",
"< 	c #7B7B7B",
"[ 	c #7B7B7B",
"} 	c #7B7B7B",
"| 	c #7B7B7B",
"1 	c #7B7B7B",
"2 	c #7B7B7B",
"3 	c #7B7B7B",
"4 	c #7B7B7B",
"5 	c #7B7B7B",
"6 	c #7B7B7B",
"7 	c #7B7B7B",
"8 	c #7B7B7B",
"9 	c #7B7B7B",
"0 	c #7B7B7B",
"a 	c #7B7B7B",
"b 	c #7B7B7B",
"c 	c #7B7B7B",
"d 	c #7B7B7B",
"e 	c #7B7B7B",
"f 	c #7B7B7B",
"g 	c #7B7B7B",
"h 	c #7B7B7B",
"i 	c #7B7B7B",
"j 	c #7B7B7B",
"k 	c #7B7B7B",
"l 	c #7B7B7B",
"m 	c #7B7B7B",
"n 	c #7B7B7B",
"o 	c #7B7B7B",
"p 	c #7B7B7B",
"q 	c #7B7B7B",
"r 	c #7B7B7B",
"s 	c #7B7B7B",
"t 	c #7B7B7B",
"u 	c #7B7B7B",
"v 	c #7B7B7B",
"w 	c #7B7B7B",
"x 	c #7B7B7B",
"y 	c #7B7B7B",
"z 	c #7B7B7B",
"A 	c #7B7B7B",
"B 	c #7B7B7B",
"C 	c #7B7B7B",
"D 	c #7B7B7B",
"E 	c #7B7B7B",
"F 	c #7B7B7B",
"G 	c #7B7B7B",
"H 	c #7B7B7B",
"I 	c #7B7B7B",
"J 	c #7B7B7B",
"K 	c #7B7B7B",
"L 	c #7B7B7B",
"M 	c #7B7B7B",
"N 	c #7B7B7B",
"O 	c #7B7B7B",
"P 	c #7B7B7B",
"Q 	c #7B7B7B",
"R 	c #7B7B7B",
"S 	c #7B7B7B",
"T 	c #7B7B7B",
"U 	c #7B7B7B",
"V 	c #7B7B7B",
"W 	c #7B7B7B",
"X 	c #7B7B7B",
"Y 	c #7B7B7B",
"Z 	c #7B7B7B",
"` 	c #7B7B7B",
" .	c #7B7B7B",
"..	c #7B7B7B",
"+.	c #7B7B7B",
"@.	c #7B7B7B",
"#.	c #7B7B7B",
"$.	c #7B7B7B",
"%.	c #7B7B7B",
"&.	c #7B7B7B",
"*.	c #7B7B7B",
"=.	c #7B7B7B",
"-.	c #7B7B7B",
";.	c #7B7B7B",
">.	c #7B7B7B",
",.	c #7B7B7B",
"'.	c #7B7B7B",
").	c #7B7B7B",
"!.	c #7B7B7B",
"~.	c #7B7B7B",
"{.	c #7B7B7B",
"].	c #7B7B7B",
"^.	c #7B7B7B",
"/.	c #7B7B7B",
"(.	c #7B7B7B",
"_.	c #7B7B7B",
":.	c #7B7B7B",
"<.	c #7B7B7B",
"[.	c #7B7B7B",
"}.	c #7B7B7B",
"|.	c #7B7B7B",
"1.	c #7B7B7B",
"2.	c #7B7B7B",
"3.	c #7B7B7B",
"4.	c #7B7B7B",
"5.	c #7B7B7B",
"6.	c #7B7B7B",
"7.	c #7B7B7B",
"8.	c #7B7B7B",
"9.	c #7B7B7B",
"0.	c #7B7B7B",
"a.	c #7B7B7B",
"b.	c #7B7B7B",
"c.	c #7B7B7B",
"d.	c #7B7B7B",
"e.	c #7B7B7B",
"f.	c #7B7B7B",
"g.	c #7B7B7B",
"h.	c #7B7B7B",
"i.	c #7B7B7B",
"j.	c #7B7B7B",
"k.	c #7B7B7B",
"l.	c #7B7B7B",
"m.	c #7B7B7B",
"n.	c #7B7B7B",
"o.	c #7B7B7B",
"p.	c #7B7B7B",
"q.	c #7B7B7B",
"r.	c #7B7B7B",
"s.	c #7B7B7B",
"t.	c #7B7B7B",
"u.	c #7B7B7B",
"v.	c #7B7B7B",
"w.	c #7B7B7B",
"x.	c #7B7B7B",
"y.	c #7B7B7B",
"z.	c #7B7B7B",
"A.	c #7B7B7B",
"B.	c #7B7B7B",
"C.	c #7B7B7B",
"D.	c #7B7B7B",
"E.	c #7B7B7B",
"F.	c #7B7B7B",
"G.	c #7B7B7B",
"H.	c #7B7B7B",
"I.	c #7B7B7B",
"J.	c #7B7B7B",
"K.	c #7B7B7B",
"L.	c #7B7B7B",
"M.	c #7B7B7B",
"N.	c #7B7B7B",
"O.	c #7B7B7B",
"P.	c #7B7B7B",
"Q.	c #7B7B7B",
"R.	c #7B7B7B",
"S.	c #7B7B7B",
"T.	c #7B7B7B",
"U.	c #7B7B7B",
"V.	c #7B7B7B",
"W.	c #7B7B7B",
"X.	c #7B7B7B",
"Y.	c #7B7B7B",
"Z.	c #7B7B7B",
"`.	c #7B7B7B",
" +	c #7B7B7B",
".+	c #7B7B7B",
"++	c #7B7B7B",
"@+	c #7B7B7B",
"#+	c #7B7B7B",
"$+	c #7B7B7B",
"%+	c #7B7B7B",
"&+	c #7B7B7B",
"*+	c #7B7B7B",
"=+	c #7B7B7B",
"-+	c #7B7B7B",
";+	c #7B7B7B",
">+	c #7B7B7B",
",+	c #7B7B7B",
"'+	c #7B7B7B",
")+	c #7B7B7B",
"!+	c #7B7B7B",
"~+	c #7B7B7B",
"{+	c #7B7B7B",
"]+	c #7B7B7B",
"^+	c #7B7B7B",
"/+	c #7B7B7B",
"(+	c #7B7B7B",
"_+	c #7B7B7B",
":+	c #7B7B7B",
"<+	c #7B7B7B",
"[+	c #7B7B7B",
"}+	c #7B7B7B",
"|+	c #7B7B7B",
"1+	c #7B7B7B",
"2+	c #7B7B7B",
"3+	c #7B7B7B",
"4+	c #7B7B7B",
"5+	c #7B7B7B",
"6+	c #7B7B7B",
"7+	c #7B7B7B",
"8+	c #7B7B7B",
"9+	c #7B7B7B",
"0+	c #7B7B7B",
"a+	c #7B7B7B",
"b+	c #7B7B7B",
"c+	c #7B7B7B",
"d+	c #7B7B7B",
"e+	c #7B7B7B",
"f+	c #7B7B7B",
"g+	c #7B7B7B",
"h+	c #7B7B7B",
"i+	c #6A4120",
"j+	c #5A4120",
"k+	c #102008",
"l+	c #291808",
"m+	c #392910",
"n+	c #202020",
"o+	c #313920",
"p+	c #202908",
"q+	c #293118",
"r+	c #101010",
"s+	c #394129",
"t+	c #5A4129",
"u+	c #413118",
"v+	c #414141",
"w+	c #4A3118",
"x+	c #312010",
"y+	c #524131",
"z+	c #181008",
"A+	c #392918",
"B+	c #414A31",
"C+	c #413120",
"D+	c #081000",
"E+	c #523918",
"F+	c #4A3920",
"G+	c #4A3929",
"o+p+o+s+p+p+C+n+o+o+C+u+r+o+p+o+p+p+o+p+o+s+p+s+o+n+u+n+n+o+p+n+C+j+F+n+n+n+n+n+n+r+r+s+p+o+B+p+B+s+p+s+s+j+p+s+p+C+B+p+B+p+p+s+",
"p+s+p+o+p+t+n+m+s+p+y+F+C+n+o+s+p+o+s+p+s+p+o+n+m+n+n+m+n+C+u+F+n+n+m+n+n+p+p+p+m+C+n+p+p+s+s+p+s+p+s+B+o+p+n+s+n+s+s+p+s+p+s+p+",
"n+p+B+p+s+n+B+s+s+o+p+y+n+s+p+o+s+o+p+o+p+o+s+m+n+m+n+p+G+o+u+j+n+n+s+s+y+y+p+p+u+F+u+n+n+n+m+B+p+B+s+p+p+s+p+n+s+p+s+B+p+s+p+p+",
"s+p+s+s+p+p+s+p+o+s+p+s+s+C+r+n+p+o+p+s+o+s+B+m+C+F+u+C+G+C+s+B+o+s+p+o+p+y+B+s+y+B+n+u+n+m+m+D+s+s+s+s+s+p+p+s+p+n+D+s+s+p+p+s+",
"o+s+B+o+p+B+p+s+p+o+s+B+B+n+n+m+r+p+o+p+o+p+o+B+p+F+u+n+u+n+r+s+B+p+s+p+B+B+o+p+o+B+B+p+u+C+u+D+p+p+B+p+o+p+B+p+p+D+D+D+o+p+B+p+",
"p+B+o+p+B+o+s+B+o+p+B+o+B+n+u+C+r+o+s+p+s+o+B+B+m+p+n+n+F+n+n+B+o+s+B+o+s+p+s+o+p+o+o+B+n+C+C+n+n+D+D+o+p+B+o+p+D+n+n+m+D+s+p+o+",
"s+o+p+o+o+s+o+s+m+s+o+p+o+B+u+u+n+n+r+B+o+p+s+B+i+n+n+u+n+r+n+o+s+o+s+B+p+B+o+p+s+B+s+B+n+C+u+n+n+u+t+D+p+o+p+D+n+n+u+n+n+D+s+B+",
"n+p+s+s+p+B+s+p+s+n+p+p+o+B+u+n+r+n+r+n+n+o+B+o+B+p+n+n+n+n+n+k+B+s+p+s+o+s+p+o+s+o+p+s+p+C+p+n+n+m+F+D+n+D+D+m+m+n+m+m+n+D+s+o+",
"B+o+s+o+p+s+p+o+o+p+o+s+o+B+G+l+m+u+n+o+n+p+s+p+B+B+o+n+n+m+n+k+o+p+o+o+B+o+p+B+s+p+o+B+u+n+n+o+n+n+n+n+C+G+C+F+n+n+n+o+n+D+s+p+",
"o+s+o+B+o+p+p+p+p+o+p+o+p+o+B+u+u+m+n+n+n+o+p+s+o+B+n+n+n+C+C+u+k+o+p+p+o+p+B+o+p+o+p+B+n+u+C+n+n+t+n+n+n+F+C+F+C+n+C+m+C+n+s+s+",
"o+s+s+o+o+s+o+s+o+o+o+s+o+B+s+p+C+n+n+n+o+B+p+o+B+B+B+m+C+v+u+u+k+k+o+p+s+s+o+p+p+o+s+B+m+u+m+n+o+C+F+C+n+u+C+n+n+s+o+m+o+B+p+o+",
"o+s+p+o+p+o+p+s+p+p+o+B+p+o+o+k+u+u+u+p+B+p+o+p+s+p+p+y+C+n+n+o+C+p+k+k+o+F+n+k+s+p+o+p+B+F+o+u+u+C+n+n+u+F+n+p+s+B+B+B+B+p+p+s+",
"m+G+s+p+s+p+o+p+p+s+p+p+D+D+D+n+n+u+o+B+s+o+s+o+o+p+B+B+y+u+G+n+o+m+n+r+D+D+k+C+s+o+s+s+B+B+n+C+u+m+n+n+n+p+B+B+B+s+p+s+s+p+s+p+",
"n+u+n+o+o+s+p+p+s+p+D+D+D+n+n+u+G+s+p+o+o+o+o+o+p+s+o+B+B+y+n+n+n+n+j+n+m+n+D+n+p+s+p+s+o+B+p+C+u+u+o+n+o+B+o+B+o+B+s+p+p+s+p+p+",
"o+n+n+n+o+s+D+D+D+D+n+n+n+n+n+n+B+o+p+o+s+p+s+p+o+o+B+o+s+B+n+m+u+u+t+n+o+n+r+D+s+p+p+o+B+B+p+n+n+F+F+j+B+o+B+p+p+o+s+o+s+p+s+B+",
"n+p+o+s+p+B+D+m+u+n+n+m+n+n+u+n+s+p+o+o+p+s+p+s+s+p+B+s+p+s+n+F+u+u+n+n+n+n+n+r+p+B+p+s+s+p+B+u+m+u+m+j+B+s+p+o+s+B+p+p+s+B+p+p+",
"p+s+p+o+s+p+B+D+n+n+n+n+n+n+n+s+C+s+o+B+p+o+p+s+o+p+s+p+o+p+G+C+C+u+n+n+s+n+n+n+D+o+s+o+p+s+B+m+m+n+n+r+s+s+s+p+o+p+s+B+p+p+p+B+",
"p+o+s+p+o+s+n+B+m+u+n+m+m+n+C+n+u+o+p+o+p+p+s+o+B+o+p+o+p+D+C+p+n+p+n+n+m+n+m+n+r+p+p+s+o+p+o+B+n+n+n+n+o+o+s+o+s+o+o+p+o+s+s+o+",
"s+p+p+p+p+s+p+n+s+y+y+B+F+n+m+l+o+p+s+p+p+o+p+o+o+B+s+p+D+n+m+n+n+n+n+C+C+C+m+u+r+D+p+o+p+p+p+B+r+m+n+n+p+s+p+o+p+o+p+s+p+s+p+p+",
"o+B+p+s+s+p+o+s+p+o+p+s+s+s+s+n+p+B+p+o+o+p+o+p+s+p+p+D+n+n+F+o+n+k+B+B+B+n+n+m+C+r+D+p+o+p+o+s+r+n+r+n+s+o+o+p+o+p+o+p+s+o+s+s+",
"s+p+s+B+o+s+o+p+s+p+o+p+o+p+B+p+s+s+p+o+p+p+p+o+p+D+D+n+n+u+p+n+n+B+s+s+p+B+u+p+F+n+r+D+o+p+p+p+r+u+F+m+n+B+p+o+p+o+p+o+C+p+s+p+",
"B+o+B+o+p+o+o+p+p+o+o+p+s+s+p+o+o+B+s+o+p+o+o+p+n+n+u+n+n+n+n+n+k+B+o+B+s+B+p+n+m+C+n+n+r+p+p+r+r+m+B+n+u+B+o+p+p+o+o+p+n+s+p+p+",
"o+B+o+p+o+p+p+n+u+o+p+o+o+s+s+B+o+s+o+p+o+p+p+r+D+n+u+n+u+m+r+n+B+p+p+o+s+o+B+p+s+n+B+n+r+r+n+r+n+u+F+p+B+o+p+o+s+o+p+o+u+n+o+s+",
"p+o+p+s+s+p+o+n+D+n+o+n+p+s+p+o+p+o+s+s+o+p+n+n+r+r+n+u+n+n+n+n+p+o+s+B+o+p+o+B+p+p+n+m+G+n+u+C+F+F+p+y+s+s+o+s+s+p+o+B+s+u+p+o+",
"s+m+n+n+n+D+D+n+n+D+D+C+p+o+s+p+o+p+o+p+p+o+s+B+p+r+r+n+n+n+n+n+s+B+o+p+s+B+o+p+B+o+C+n+u+n+l+n+C+u+y+s+o+s+s+o+p+o+B+s+p+p+n+p+",
"p+n+n+D+D+n+n+n+C+n+m+D+n+p+p+o+s+s+o+o+o+p+o+p+B+n+m+n+u+u+C+n+s+s+s+B+o+p+o+s+B+m+n+m+m+n+n+C+y+y+B+o+s+o+p+B+p+o+B+p+B+s+p+s+",
"o+n+D+m+n+m+C+n+n+n+G+n+u+p+p+o+B+o+s+B+p+o+p+o+p+B+n+C+F+C+t+s+p+s+p+s+B+s+p+s+B+u+n+m+o+m+G+y+o+p+s+p+o+s+s+s+p+s+s+p+s+p+s+B+",
"p+o+n+C+n+C+m+n+n+m+C+u+p+p+s+p+o+p+B+o+o+p+o+s+p+B+p+m+n+F+m+o+s+p+s+o+s+p+s+B+s+n+o+n+n+F+u+B+p+o+p+p+p+s+p+B+s+s+p+p+p+p+s+p+",
"o+o+n+p+C+n+n+n+u+m+D+p+p+s+p+o+p+o+o+s+p+o+p+p+B+o+u+n+C+m+r+s+p+s+B+B+o+s+o+p+y+p+n+n+u+n+y+o+s+p+p+o+s+p+o+s+p+o+p+s+s+C+n+s+",
"s+m+u+C+m+n+n+m+C+D+s+G+s+B+B+p+s+s+p+p+o+p+s+o+B+p+n+m+n+r+r+n+o+p+o+s+p+o+o+o+s+y+p+C+B+y+o+o+p+o+s+p+o+s+p+p+s+p+p+p+o+m+n+p+",
"p+B+p+n+u+B+B+m+n+u+D+o+s+p+p+o+s+o+p+o+p+o+p+B+u+m+n+n+u+n+n+n+p+o+s+o+B+p+s+p+o+s+y+y+B+p+o+p+o+o+p+o+p+o+o+s+B+o+s+p+s+n+p+o+",
"p+s+s+B+o+s+p+B+u+m+p+D+o+s+s+s+o+B+o+p+o+p+o+s+m+n+m+m+u+n+n+p+o+s+o+o+o+s+o+o+s+p+o+p+s+s+o+p+p+p+o+p+o+o+s+o+s+B+p+p+u+o+s+o+",
"s+B+o+s+B+p+s+C+B+B+o+r+o+p+s+s+s+o+o+s+o+s+B+B+u+C+n+u+C+F+n+s+o+o+p+s+p+o+s+B+p+s+p+B+p+o+p+p+D+p+p+p+s+p+B+s+p+s+o+s+p+o+p+o+",
"B+o+p+B+o+s+B+o+s+p+s+p+p+o+o+p+o+o+p+o+s+p+s+B+C+C+n+n+n+n+l+B+s+p+s+p+o+p+B+o+s+B+o+s+p+s+p+r+n+D+D+p+p+p+s+s+o+p+p+o+p+o+s+p+",
"o+p+o+o+s+o+s+B+p+o+o+p+o+p+o+p+p+s+p+p+p+s+o+B+s+m+C+F+n+p+B+s+p+s+p+s+p+o+o+s+p+s+B+p+p+p+D+n+n+l+r+D+D+D+p+s+s+s+p+p+o+o+p+s+",
"p+s+s+p+B+s+p+s+o+s+p+o+s+o+p+p+F+n+n+p+p+p+p+o+s+B+B+s+B+B+s+o+B+p+o+p+s+o+p+p+s+p+p+r+D+D+n+s+n+n+n+u+n+n+p+s+s+s+p+s+o+p+p+o+",
"o+p+o+p+s+p+B+o+B+o+p+B+s+p+s+p+o+r+r+D+r+D+r+p+p+s+p+p+s+s+o+s+o+s+o+o+s+o+p+o+p+o+n+r+G+n+n+n+m+p+m+u+u+n+s+s+p+s+p+p+p+p+o+p+",
"p+o+B+o+p+B+p+s+s+p+B+o+p+s+p+B+n+n+D+D+r+r+r+D+r+p+B+p+o+B+s+o+o+o+s+s+o+p+o+p+o+p+r+m+m+u+n+n+n+m+r+u+p+B+p+s+p+p+n+D+D+p+p+B+",
"s+p+o+B+s+o+s+o+B+s+o+B+p+o+s+n+B+n+D+u+n+r+r+o+n+r+p+s+p+o+B+p+s+p+o+o+s+o+p+s+o+p+r+n+n+n+u+m+C+n+n+B+s+o+p+o+B+p+D+m+n+D+D+p+",
"n+z+p+o+o+p+o+B+o+p+B+p+s+p+o+s+B+F+n+n+n+n+n+z+r+r+n+o+o+p+o+s+p+s+o+o+o+p+o+o+p+r+r+m+u+u+C+u+p+G+G+B+p+s+p+s+B+k+k+n+u+F+D+n+",
"r+n+k+k+s+o+p+s+o+p+o+s+p+B+s+p+s+C+r+k+m+r+z+u+z+n+D+p+s+s+p+s+s+p+o+p+o+o+p+o+s+p+r+m+n+u+n+u+n+r+B+o+s+o+p+s+s+n+n+n+F+u+n+l+",
"m+G+n+p+k+B+p+o+p+o+p+o+p+s+p+B+o+B+k+p+r+n+n+z+n+n+n+p+s+s+o+o+B+s+o+o+p+o+o+p+p+B+r+n+m+C+n+G+r+B+s+p+o+s+s+s+p+s+p+n+n+n+o+o+",
"n+n+r+n+G+k+o+p+p+s+o+p+o+p+B+p+s+k+n+r+n+F+n+r+n+n+n+B+s+p+p+o+s+o+s+o+o+p+o+s+p+o+m+n+u+u+u+n+G+s+p+B+p+s+p+B+s+s+p+B+p+z+n+u+",
"F+n+F+G+G+m+k+k+k+k+k+k+k+n+n+s+n+k+n+n+o+j+F+n+n+s+B+o+p+o+p+o+o+s+F+p+s+s+p+s+o+s+B+l+F+n+G+n+B+p+p+s+s+o+o+s+p+o+p+s+B+p+D+u+",
"o+n+u+n+n+r+r+m+n+n+n+n+n+m+u+k+k+n+F+G+n+n+n+p+B+o+o+o+o+p+o+o+o+p+s+p+o+s+o+B+p+o+o+F+j+m+n+G+B+o+s+B+o+s+p+p+s+p+o+p+o+B+z+z+",
"u+m+C+n+n+n+n+u+n+n+n+u+n+p+n+n+n+m+n+n+s+p+B+s+s+o+p+p+s+s+p+s+p+o+p+o+p+o+s+o+B+p+p+p+B+u+p+B+o+s+B+o+p+o+o+s+B+o+s+p+p+o+D+z+",
"n+n+u+n+m+n+n+r+n+G+m+u+n+r+r+n+n+F+F+n+p+B+p+p+o+o+p+B+p+B+p+o+s+o+s+p+o+s+s+o+s+s+p+p+o+B+B+o+s+p+o+p+o+p+s+p+s+B+p+p+o+o+n+n+",
"u+C+n+n+m+o+u+r+n+n+n+n+n+n+m+n+n+p+n+n+B+s+p+s+o+p+B+o+s+p+o+s+o+s+p+o+p+o+p+s+p+p+s+B+p+s+p+o+o+o+p+s+o+p+o+s+p+s+o+s+p+o+r+n+",
"C+n+u+n+n+u+m+n+n+n+n+n+n+s+B+p+B+s+B+B+o+p+s+p+p+o+B+p+o+p+p+s+p+p+s+s+o+p+B+p+p+s+p+o+o+B+o+s+p+o+o+s+o+p+s+p+o+o+p+o+p+D+C+n+",
"m+n+n+n+G+C+C+n+n+n+B+o+s+B+n+B+p+o+B+s+B+s+p+s+s+p+o+s+o+p+s+p+p+o+p+o+o+s+p+p+s+p+p+s+p+n+m+p+p+s+o+o+p+o+p+o+p+p+s+p+D+F+j+m+",
"n+n+n+n+C+s+n+p+B+B+s+p+o+s+s+p+p+s+s+p+s+p+s+o+p+p+o+p+p+k+k+s+o+p+p+p+o+s+o+s+p+s+B+B+D+D+n+o+s+o+s+s+o+p+p+o+p+D+D+n+u+z+u+z+",
"C+n+o+m+n+p+B+B+s+s+p+B+p+s+p+o+n+n+p+B+p+B+o+p+o+o+p+o+k+r+r+r+n+p+o+s+B+p+p+s+B+p+B+p+D+D+m+m+o+p+o+B+p+o+o+p+D+D+n+n+u+n+z+n+",
"n+m+p+o+p+s+o+s+o+B+p+s+s+p+l+s+p+n+r+s+m+s+p+o+p+o+p+p+r+r+k+k+r+r+r+n+p+s+B+s+p+p+p+D+C+m+F+s+p+s+o+p+o+p+m+D+n+u+n+F+n+n+n+n+",
"n+n+o+s+p+p+o+p+o+B+s+B+o+s+n+n+n+p+n+n+r+r+o+p+p+p+o+k+r+m+k+p+k+r+n+n+r+n+p+p+r+D+D+r+r+C+p+p+s+s+p+s+s+p+D+F+C+n+o+r+n+n+n+n+",
"p+s+p+o+p+o+s+p+s+p+B+o+p+u+u+n+n+n+n+n+n+r+r+o+p+p+k+r+m+m+m+k+r+k+n+m+n+m+m+p+n+r+u+n+r+r+p+s+p+B+o+s+o+p+B+n+n+n+n+n+n+m+m+j+",
"o+p+B+p+s+p+p+s+p+p+o+p+o+u+p+n+n+r+r+C+y+n+n+r+r+r+r+m+n+u+B+r+n+B+n+m+o+n+n+t+n+n+n+C+n+p+s+p+p+o+s+o+B+o+p+B+u+n+n+n+n+o+u+u+",
"s+p+s+s+p+p+o+p+o+p+p+s+s+n+n+n+n+m+n+n+n+r+r+r+r+r+n+n+n+p+s+s+n+p+n+n+r+u+u+n+n+u+m+m+u+s+p+p+s+o+p+s+o+o+s+B+r+n+j+C+u+F+m+n+",
"o+s+B+o+p+o+p+o+p+p+o+s+o+p+r+n+n+F+j+u+r+r+r+r+n+n+u+n+n+B+p+o+B+o+p+n+F+u+n+m+n+u+C+n+C+o+p+B+p+o+s+p+o+p+B+p+n+C+C+m+n+u+F+n+",
"p+B+o+p+B+o+s+p+o+s+p+o+p+o+n+n+n+l+l+C+n+r+n+s+n+n+r+n+o+s+p+s+p+B+o+n+u+n+m+n+n+m+u+n+l+s+s+p+o+p+o+o+p+p+o+B+p+o+m+m+l+s+n+o+",
"s+o+m+m+o+s+o+s+p+p+s+s+n+n+n+n+n+r+n+r+r+n+n+n+n+n+u+C+m+p+o+o+s+o+p+u+n+n+n+n+m+C+r+r+B+o+B+s+B+s+o+B+o+o+s+o+B+p+n+r+o+B+B+B+",
"s+p+s+s+m+n+s+p+s+o+o+m+p+m+r+p+o+s+o+n+n+n+n+n+n+C+s+G+G+o+s+n+p+r+o+C+n+n+u+C+C+s+p+o+s+p+o+s+o+s+p+o+p+p+p+o+p+B+n+B+B+o+s+o+",
"B+o+s+o+n+n+p+n+n+n+u+m+r+F+p+p+o+p+B+s+r+n+n+m+n+u+u+C+n+u+m+n+n+n+n+m+s+m+F+u+F+n+o+B+o+p+B+s+p+B+o+s+o+p+o+p+o+n+B+o+p+B+s+p+",
"o+s+o+B+o+p+B+n+n+n+n+n+n+p+p+s+p+B+o+p+s+m+m+r+m+m+n+m+n+m+m+n+n+r+n+n+o+m+m+C+m+n+s+s+p+B+o+p+s+o+s+o+p+o+p+o+C+m+s+p+B+o+p+s+",
"o+s+s+o+B+s+o+s+o+r+r+C+n+p+o+p+s+o+B+p+o+s+s+m+B+s+n+m+n+n+n+t+n+n+n+n+n+n+F+F+m+m+o+B+s+o+B+p+o+o+s+s+o+o+s+o+s+o+B+s+o+B+p+o+"};
