/* XPM */
static char * doom_rocks_xpm[] = {
"64 64 256 2",
"  	c #000000",
". 	c #0000FF",
"+ 	c #00FF00",
"@ 	c #FF0000",
"# 	c #00FFFF",
"$ 	c #FFFF00",
"% 	c #FF00FF",
"& 	c #FFFFFF",
"* 	c #7B7B7B",
"= 	c #7B7B7B",
"- 	c #7B7B7B",
"; 	c #7B7B7B",
"> 	c #7B7B7B",
", 	c #7B7B7B",
"' 	c #7B7B7B",
") 	c #7B7B7B",
"! 	c #7B7B7B",
"~ 	c #7B7B7B",
"{ 	c #7B7B7B",
"] 	c #7B7B7B",
"^ 	c #7B7B7B",
"/ 	c #7B7B7B",
"( 	c #7B7B7B",
"_ 	c #7B7B7B",
": 	c #7B7B7B",
"< 	c #7B7B7B",
"[ 	c #7B7B7B",
"} 	c #7B7B7B",
"| 	c #7B7B7B",
"1 	c #7B7B7B",
"2 	c #7B7B7B",
"3 	c #7B7B7B",
"4 	c #7B7B7B",
"5 	c #7B7B7B",
"6 	c #7B7B7B",
"7 	c #7B7B7B",
"8 	c #7B7B7B",
"9 	c #7B7B7B",
"0 	c #7B7B7B",
"a 	c #7B7B7B",
"b 	c #7B7B7B",
"c 	c #7B7B7B",
"d 	c #7B7B7B",
"e 	c #7B7B7B",
"f 	c #7B7B7B",
"g 	c #7B7B7B",
"h 	c #7B7B7B",
"i 	c #7B7B7B",
"j 	c #7B7B7B",
"k 	c #7B7B7B",
"l 	c #7B7B7B",
"m 	c #7B7B7B",
"n 	c #7B7B7B",
"o 	c #7B7B7B",
"p 	c #7B7B7B",
"q 	c #7B7B7B",
"r 	c #7B7B7B",
"s 	c #7B7B7B",
"t 	c #7B7B7B",
"u 	c #7B7B7B",
"v 	c #7B7B7B",
"w 	c #7B7B7B",
"x 	c #7B7B7B",
"y 	c #7B7B7B",
"z 	c #7B7B7B",
"A 	c #7B7B7B",
"B 	c #7B7B7B",
"C 	c #7B7B7B",
"D 	c #7B7B7B",
"E 	c #7B7B7B",
"F 	c #7B7B7B",
"G 	c #7B7B7B",
"H 	c #7B7B7B",
"I 	c #7B7B7B",
"J 	c #7B7B7B",
"K 	c #7B7B7B",
"L 	c #7B7B7B",
"M 	c #7B7B7B",
"N 	c #7B7B7B",
"O 	c #7B7B7B",
"P 	c #7B7B7B",
"Q 	c #7B7B7B",
"R 	c #7B7B7B",
"S 	c #7B7B7B",
"T 	c #7B7B7B",
"U 	c #7B7B7B",
"V 	c #7B7B7B",
"W 	c #7B7B7B",
"X 	c #7B7B7B",
"Y 	c #7B7B7B",
"Z 	c #7B7B7B",
"` 	c #7B7B7B",
" .	c #7B7B7B",
"..	c #7B7B7B",
"+.	c #7B7B7B",
"@.	c #7B7B7B",
"#.	c #7B7B7B",
"$.	c #7B7B7B",
"%.	c #7B7B7B",
"&.	c #7B7B7B",
"*.	c #7B7B7B",
"=.	c #7B7B7B",
"-.	c #7B7B7B",
";.	c #7B7B7B",
">.	c #7B7B7B",
",.	c #7B7B7B",
"'.	c #7B7B7B",
").	c #7B7B7B",
"!.	c #7B7B7B",
"~.	c #7B7B7B",
"{.	c #7B7B7B",
"].	c #7B7B7B",
"^.	c #7B7B7B",
"/.	c #7B7B7B",
"(.	c #7B7B7B",
"_.	c #7B7B7B",
":.	c #7B7B7B",
"<.	c #7B7B7B",
"[.	c #7B7B7B",
"}.	c #7B7B7B",
"|.	c #7B7B7B",
"1.	c #7B7B7B",
"2.	c #7B7B7B",
"3.	c #7B7B7B",
"4.	c #7B7B7B",
"5.	c #7B7B7B",
"6.	c #7B7B7B",
"7.	c #7B7B7B",
"8.	c #7B7B7B",
"9.	c #7B7B7B",
"0.	c #7B7B7B",
"a.	c #7B7B7B",
"b.	c #7B7B7B",
"c.	c #7B7B7B",
"d.	c #7B7B7B",
"e.	c #7B7B7B",
"f.	c #7B7B7B",
"g.	c #7B7B7B",
"h.	c #7B7B7B",
"i.	c #7B7B7B",
"j.	c #7B7B7B",
"k.	c #7B7B7B",
"l.	c #7B7B7B",
"m.	c #7B7B7B",
"n.	c #7B7B7B",
"o.	c #7B7B7B",
"p.	c #7B7B7B",
"q.	c #7B7B7B",
"r.	c #7B7B7B",
"s.	c #7B7B7B",
"t.	c #7B7B7B",
"u.	c #7B7B7B",
"v.	c #7B7B7B",
"w.	c #7B7B7B",
"x.	c #7B7B7B",
"y.	c #7B7B7B",
"z.	c #7B7B7B",
"A.	c #7B7B7B",
"B.	c #7B7B7B",
"C.	c #7B7B7B",
"D.	c #7B7B7B",
"E.	c #7B7B7B",
"F.	c #7B7B7B",
"G.	c #7B7B7B",
"H.	c #7B7B7B",
"I.	c #7B7B7B",
"J.	c #7B7B7B",
"K.	c #7B7B7B",
"L.	c #7B7B7B",
"M.	c #7B7B7B",
"N.	c #7B7B7B",
"O.	c #7B7B7B",
"P.	c #7B7B7B",
"Q.	c #7B7B7B",
"R.	c #7B7B7B",
"S.	c #7B7B7B",
"T.	c #7B7B7B",
"U.	c #7B7B7B",
"V.	c #7B7B7B",
"W.	c #7B7B7B",
"X.	c #7B7B7B",
"Y.	c #7B7B7B",
"Z.	c #7B7B7B",
"`.	c #7B7B7B",
" +	c #7B7B7B",
".+	c #7B7B7B",
"++	c #7B7B7B",
"@+	c #7B7B7B",
"#+	c #7B7B7B",
"$+	c #7B7B7B",
"%+	c #7B7B7B",
"&+	c #7B7B7B",
"*+	c #7B7B7B",
"=+	c #7B7B7B",
"-+	c #7B7B7B",
";+	c #7B7B7B",
">+	c #7B7B7B",
",+	c #7B7B7B",
"'+	c #7B7B7B",
")+	c #7B7B7B",
"!+	c #7B7B7B",
"~+	c #7B7B7B",
"{+	c #7B7B7B",
"]+	c #7B7B7B",
"^+	c #7B7B7B",
"/+	c #7B7B7B",
"(+	c #7B7B7B",
"_+	c #7B7B7B",
":+	c #7B7B7B",
"<+	c #7B7B7B",
"[+	c #7B7B7B",
"}+	c #7B7B7B",
"|+	c #7B7B7B",
"1+	c #7B7B7B",
"2+	c #734A29",
"3+	c #735A4A",
"4+	c #5A5A5A",
"5+	c #626A4A",
"6+	c #101800",
"7+	c #181818",
"8+	c #412918",
"9+	c #292008",
"0+	c #312910",
"a+	c #414A31",
"b+	c #293118",
"c+	c #312010",
"d+	c #291808",
"e+	c #4A3118",
"f+	c #181008",
"g+	c #292929",
"h+	c #523918",
"i+	c #392910",
"j+	c #414141",
"k+	c #393939",
"l+	c #4A3920",
"m+	c #392918",
"n+	c #202020",
"o+	c #184110",
"p+	c #202908",
"q+	c #525239",
"r+	c #313920",
"s+	c #413120",
"t+	c #6A5241",
"u+	c #394129",
"v+	c #6A4120",
"w+	c #5A4129",
"x+	c #4A3929",
"y+	c #4A4A4A",
"z+	c #524131",
"A+	c #413118",
"B+	c #525252",
"C+	c #625239",
"D+	c #5A4120",
"E+	c #6A6A6A",
"F+	c #5A4A31",
"G+	c #5A6241",
"i+c+7+7+n+7+n+g+n+n+7+c+c+s+l+A+c+f+f+y+y+i+f+c+A+A+8+A+A+7+7+c+s+r+a+a+r+r+u+u+c+f+0+0+x+x+0+c+c+c+c+c+j+k+c+c+j+8+A+A+7+f+f+8+",
"q+A+c+g+k+k+k+g+g+n+n+c+s+w+l+A+A+c+0+l+i+8+f+i+j+k+A+s+c+x+0+c+c+s+a+u+r+6+r+r+r+r+8+a+a+u+A+c+f+f+c+8+y+y+i+c+8+i+A+A+A+0+A+w+",
"u+f+c+y+y+y+j+g+k+n+g+j+A+A+A+7+7+f+f+A+0+f+0+0+A+l+l+s+c+f+f+D+c+l+l+i+i+f+i+8+A+r+r+s+8+r+c+f+c+c+i+8+l+4+k+g+l+l+l+A+r+s+c+l+",
"f+f+A+D+A+8+k+k+g+7+g+k+k+D+A+7+7+7+c+r+r+u+a+a+a+q+u+A+l+0+0+s+c+c+f+f+f+A+D+4+k+i+f+c+f+c+7+c+r+0+c+8+8+i+g+7+y+4+i+A+u+c+7+r+",
"c+0+A+l+D+D+j+y+k+n+7+n+c+n+7+6+f+r+r+7+r+a+k+a+u+l+D+A+f+7+c+c+w+8+c+f+c+x+x+A+8+k+n+f+f+7+7+r+r+A+n+c+f+c+f+g+y+y+4+8+A+c+c+r+",
"0+A+D+D+l+q+a+r+c+g+n+n+c+n+7+7+i+A+s+r+r+s+8+s+0+A+l+A+l+c+z+l+l+w+8+x+8+s+u+8+s+f+c+k+i+c+n+q+u+r+7+f+n+f+f+c+c+k+y+i+0+c+f+f+",
"c+A+l+D+l+u+s+a+r+f+f+g+u+z+k+x+D+D+D+A+c+0+A+A+0+A+0+c+c+c+A+l+l+0+c+A+r+r+r+f+f+r+s+l+y+0+7+z+A+f+c+s+i+g+n+i+8+k+k+i+A+7+f+7+",
"f+0+A+A+A+a+c+s+r+7+7+A+a+3+C+x+l+w+l+A+c+0+0+c+0+0+c+c+c+c+c+c+c+c+f+c+c+c+c+f+f+A+l+A+A+c+f+c+6+c+D+l+l+k+g+k+k+k+n+n+f+f+f+f+",
"r+f+c+7+f+r+7+c+7+c+8+a+z+z+z+w+s+s+8+A+f+i+c+c+c+c+f+c+s+7+7+c+D+c+c+A+l+l+l+c+c+A+l+8+c+f+f+l+7+A+l+A+i+c+f+g+7+c+n+g+7+7+f+f+",
"u+l+A+r+7+f+c+f+7+s+x+x+z+z+s+l+A+s+s+r+f+g+f+f+f+f+f+7+n+f+8+c+c+s+r+x+D+l+l+A+c+c+0+c+f+7+c+l+c+c+a+A+c+f+f+l+f+n+7+n+n+n+f+c+",
"q+l+A+A+c+7+7+f+c+s+x+z+x+s+s+s+i+0+8+r+7+n+n+f+f+f+f+f+c+f+f+D+u+r+r+z+q+D+A+0+c+c+0+f+f+c+r+k+c+c+r+r+r+7+c+A+f+n+f+f+f+g+g+k+",
"A+l+l+c+c+c+c+c+f+A+l+l+s+8+x+s+c+c+c+s+f+f+n+n+7+c+f+c+7+f+7+s+s+7+7+s+u+s+8+c+f+c+7+c+0+r+j+r+g+c+c+f+f+c+D+u+f+f+n+f+f+c+i+y+",
"l+l+l+c+0+f+l+A+0+c+i+A+i+s+8+s+s+c+7+s+r+D+j+k+g+i+8+f+f+0+A+x+l+u+r+f+c+r+c+f+A+l+A+A+D+r+E+y+n+g+7+c+0+g+l+D+k+r+c+f+f+A+D+l+",
"D+D+l+f+f+A+l+l+l+7+c+A+c+0+A+c+7+f+f+n+s+a+j+k+7+c+f+f+c+i+8+l+z+8+c+f+c+f+c+c+0+c+f+c+c+r+r+r+k+x+n+a+D+D+g+l+A+A+0+c+c+l+l+4+",
"l+l+0+c+f+0+A+i+8+f+c+c+c+c+f+f+f+f+c+r+l+x+A+k+n+i+A+D+l+c+8+A+0+A+f+c+l+8+D+f+c+c+l+c+i+i+i+i+i+r+r+r+c+l+D+8+y+l+0+0+f+i+l+A+",
"f+0+c+f+c+0+f+c+7+f+f+c+7+7+7+f+f+c+0+c+c+f+f+f+i+4+D+A+i+f+c+f+f+f+c+D+c+0+f+c+c+c+c+c+l+i+i+n+c+c+n+c+A+A+0+0+i+k+i+0+f+c+k+i+",
"f+f+f+c+f+c+f+f+c+c+c+c+c+c+7+7+f+c+A+w+8+c+f+c+l+l+8+A+i+f+f+f+f+f+c+c+f+c+f+f+A+c+f+f+c+g+k+l+c+7+a+f+8+A+f+c+i+k+c+r+f+f+g+k+",
"l+A+c+A+7+c+c+0+j+i+A+s+s+c+c+7+f+0+l+x+z+0+y+0+A+A+0+A+f+c+i+i+c+f+c+A+f+c+c+0+A+c+l+8+i+c+i+A+7+7+r+A+l+l+0+c+8+g+c+c+f+n+g+k+",
"z+l+A+c+7+c+s+D+l+l+l+2+w+s+c+c+c+A+c+x+8+7+A+i+c+c+f+f+c+D+l+l+i+c+i+c+f+c+A+D+c+i+l+A+k+f+c+f+f+c+0+8+l+A+A+c+g+g+f+f+f+n+y+l+",
"x+A+c+c+c+c+8+w+2+y+D+w+z+l+A+A+c+0+c+f+f+7+7+c+c+c+f+f+A+l+A+A+c+f+c+c+c+c+i+c+i+i+0+k+k+f+k+j+D+4+c+j+i+i+c+f+7+c+f+f+f+i+l+l+",
"y+A+A+7+c+8+l+l+D+l+l+l+x+l+8+A+c+f+c+D+u+7+s+x+x+D+c+c+c+l+A+c+f+f+l+f+c+0+c+c+c+c+f+f+f+i+E+D+s+k+f+g+f+c+f+f+g+c+f+7+c+c+A+l+",
"c+0+f+f+c+i+s+w+l+D+8+D+D+s+8+8+c+i+f+l+A+c+x+z+x+x+s+c+c+0+c+c+f+c+i+f+c+c+A+l+D+A+c+f+c+y+y+A+s+8+f+n+f+f+f+c+f+c+7+r+r+r+7+n+",
"8+f+c+c+c+s+l+l+w+D+l+l+l+A+0+f+f+A+D+0+c+c+l+z+z+x+8+f+C+f+f+7+c+l+k+g+c+c+c+l+l+c+0+l+i+k+i+0+s+7+c+A+0+c+c+0+c+c+g+A+q+x+u+c+",
"u+A+c+c+c+s+s+s+x+A+A+A+A+0+0+f+f+c+0+c+l+c+s+s+s+x+7+7+r+7+r+8+u+a+z+c+c+c+c+c+c+c+c+A+0+c+c+7+f+c+s+y+l+0+f+0+c+0+l+l+l+D+l+a+",
"c+l+l+0+c+0+8+x+8+c+0+0+8+c+f+f+f+7+c+z+8+c+f+c+c+f+f+u+a+u+s+u+G+t+z+8+c+s+s+x+8+c+n+f+r+c+c+f+c+c+j+A+0+c+f+c+0+x+C+D+D+l+l+D+",
"i+8+0+A+c+c+c+x+8+c+n+c+c+c+7+c+A+s+x+x+8+c+f+c+g+c+c+8+c+c+c+c+x+x+u+s+r+r+r+x+z+c+n+k+y+z+q+r+c+c+0+0+g+c+f+l+s+q+C+2+D+D+l+l+",
"l+A+0+s+c+c+c+c+c+7+c+g+f+f+7+c+s+x+l+A+c+c+c+g+g+0+7+c+c+c+c+s+r+8+8+u+c+r+f+r+x+a+r+x+q+a+y+k+c+r+r+c+c+f+c+l+D+2+D+2+D+l+l+D+",
"A+A+x+s+n+c+c+c+7+7+f+f+f+c+c+c+A+8+8+A+c+c+f+n+g+c+l+c+7+c+c+8+s+c+n+j+c+c+c+c+8+c+c+y+D+q+a+u+7+r+r+n+A+l+A+i+8+l+D+E+D+l+l+D+",
"l+A+8+s+c+c+n+7+c+7+f+7+c+f+c+c+0+g+c+A+c+x+s+0+g+k+A+f+7+8+8+x+x+k+g+A+c+f+f+7+c+x+c+k+k+A+l+f+f+r+r+A+l+5+l+A+c+A+y+D+D+D+A+8+",
"l+0+c+c+c+c+c+f+r+n+x+x+D+c+c+r+c+g+c+c+8+x+s+r+f+g+f+f+c+0+s+x+z+A+c+c+c+c+c+7+w+0+g+f+c+c+f+f+A+l+A+A+w+C+C+x+u+D+l+A+l+D+l+D+",
"y+A+A+8+c+7+c+c+l+7+s+x+w+s+7+c+c+g+g+c+0+8+s+8+f+i+8+l+l+c+A+s+8+A+f+i+c+7+c+c+l+k+c+f+c+c+c+c+0+c+l+c+c+l+z+s+s+r+A+0+A+A+A+A+",
"g+i+f+f+0+f+f+i+l+f+c+8+c+c+c+c+7+n+n+g+c+f+f+f+A+D+D+i+i+f+c+f+f+f+f+f+0+7+7+c+i+A+c+c+c+8+8+n+c+c+l+c+A+A+A+A+c+r+c+c+c+i+0+l+",
"u+c+f+f+f+f+f+c+0+f+f+f+f+f+g+y+g+n+y+4+k+g+f+c+l+y+j+j+0+n+n+n+f+f+c+f+f+f+7+g+f+f+7+c+k+j+y+k+c+n+f+l+l+i+f+g+8+8+8+8+f+f+n+0+",
"D+i+c+c+i+i+0+c+0+c+l+8+i+g+k+j+n+n+k+y+4+k+l+k+0+A+r+u+n+g+k+k+r+c+8+r+k+i+0+r+c+f+f+c+0+4+l+j+c+c+i+l+i+8+f+8+8+i+i+i+8+i+k+D+",
"i+f+c+l+l+l+8+c+c+i+l+8+i+7+g+n+n+g+k+y+k+7+j+i+c+r+n+7+r+q+a+l+r+n+r+a+y+l+A+c+r+f+c+A+k+A+A+g+g+g+f+i+i+n+j+c+l+l+y+j+0+0+c+a+",
"f+f+i+l+i+8+i+i+c+i+i+i+k+n+k+j+4+4+g+n+7+n+7+g+r+r+n+7+u+a+A+A+c+c+8+x+0+8+s+u+r+6+c+0+0+j+g+n+f+n+g+g+c+0+l+l+D+D+0+k+k+g+n+c+",
"c+0+i+l+l+l+8+y+c+c+f+n+n+k+4+4+k+k+n+4+k+f+0+a+a+u+p+c+c+l+A+c+f+f+8+x+y+D+A+l+0+f+6+f+g+c+f+6+f+g+g+f+0+A+8+l+l+l+l+A+s+c+c+g+",
"r+a+D+4+l+l+l+c+l+k+g+n+g+y+y+j+j+k+n+y+A+c+u+q+a+a+r+p+c+0+c+c+f+f+7+D+l+q+a+c+c+c+f+f+c+f+f+f+8+y+j+k+k+8+i+i+c+i+l+A+u+n+f+f+",
"c+s+a+l+y+j+i+y+y+4+k+y+k+k+k+k+k+n+c+0+c+c+r+q+q+a+r+p+c+c+f+f+c+0+f+D+l+A+A+l+0+f+f+c+A+y+j+a+D+4+4+i+g+k+8+0+i+i+0+0+s+7+f+n+",
"7+r+A+A+i+j+g+k+l+k+7+j+i+g+g+n+7+c+A+u+r+c+p+r+u+u+p+f+c+f+c+0+2+a+r+6+u+u+c+0+c+f+f+s+x+G+2+y+y+4+l+i+c+0+0+0+0+0+f+n+f+f+7+f+",
"r+f+c+f+f+g+n+c+f+f+f+f+g+c+g+f+f+A+a+a+r+c+6+p+r+p+f+p+l+0+A+D+D+w+l+f+f+c+f+c+f+c+k+l+t+y+D+4+k+8+i+8+f+k+c+f+f+c+f+c+f+f+f+f+",
"A+l+A+c+n+7+c+f+D+i+n+k+a+l+l+c+r+c+l+a+u+c+p+p+p+p+p+p+c+f+c+c+l+l+8+r+f+f+c+6+f+A+l+y+G+C+A+y+y+8+i+c+n+c+n+7+f+f+f+f+f+f+f+c+",
"D+l+i+i+g+n+f+f+y+8+c+y+q+D+l+A+c+c+0+a+r+6+6+p+p+f+f+c+c+l+c+0+s+8+a+s+c+f+f+f+c+A+l+D+l+A+o+k+j+i+i+c+f+f+f+f+f+f+f+f+f+c+c+0+",
"0+l+l+g+g+c+c+g+i+c+c+a+q+D+l+0+6+q+6+r+c+6+p+u+r+n+f+f+f+c+0+l+8+z+x+c+c+c+c+c+n+s+y+a+A+0+l+0+n+g+k+f+f+c+c+f+f+f+f+f+f+c+0+l+",
"l+l+4+c+0+f+l+8+g+y+r+u+k+A+l+6+7+r+f+c+6+r+a+q+r+n+c+f+f+0+D+l+l+l+D+c+8+f+a+a+r+c+k+u+u+A+0+k+A+n+f+7+c+k+i+i+0+c+c+f+f+0+D+D+",
"D+D+y+f+f+A+l+y+4+0+r+f+r+c+f+f+u+a+s+s+r+D+C+D+u+u+8+r+r+l+l+4+D+D+l+f+f+A+l+l+x+n+c+A+c+0+0+c+f+f+f+c+r+a+a+A+i+A+0+c+c+l+l+l+",
"l+a+r+c+f+0+8+i+l+r+c+f+c+f+c+c+0+r+f+c+r+l+D+D+D+l+0+8+f+A+D+0+x+l+8+c+f+0+A+0+8+f+c+c+c+c+f+f+f+f+c+A+q+z+a+a+a+l+i+0+f+i+D+s+",
"f+r+n+7+r+i+n+c+u+n+c+c+l+r+q+f+c+r+a+c+0+A+0+8+s+A+0+r+n+c+A+0+f+8+c+f+c+0+f+c+f+f+f+r+f+f+f+f+f+c+0+x+a+q+4+q+s+u+r+i+f+r+s+s+",
"n+f+7+n+n+c+f+f+s+n+n+f+c+r+r+l+c+f+r+7+A+A+c+c+8+0+c+c+f+f+c+0+f+f+f+c+u+f+f+c+c+x+A+f+c+c+f+f+7+c+A+a+a+a+k+l+k+k+c+c+f+f+c+0+",
"l+A+c+s+f+c+c+0+A+c+l+8+i+c+u+u+f+f+0+A+l+l+0+c+A+f+i+c+f+f+c+0+l+0+c+u+r+l+0+c+f+8+0+c+A+c+g+f+f+8+A+l+x+z+j+u+s+f+0+c+f+f+c+8+",
"4+l+s+r+f+c+u+D+c+k+l+A+0+f+c+f+f+c+0+A+l+q+0+c+c+c+f+f+f+f+l+l+D+l+0+c+c+f+f+z+s+n+g+g+A+A+g+c+c+c+0+A+l+u+A+0+c+c+f+f+f+f+l+C+",
"y+0+c+n+c+c+A+D+0+k+k+i+0+f+A+A+D+D+f+r+s+8+n+7+f+c+f+f+f+0+D+D+l+A+c+c+l+0+0+s+u+c+r+c+A+l+A+g+c+0+g+k+A+A+l+g+f+c+f+f+f+0+z+C+",
"y+j+A+7+c+8+l+D+c+c+7+n+n+0+C+C+8+u+f+f+f+7+f+7+c+c+f+f+c+0+l+l+l+j+s+f+f+f+c+c+f+a+s+g+A+A+0+c+c+f+c+c+0+0+g+f+c+c+f+f+c+8+l+l+",
"c+k+f+f+c+s+A+D+D+A+c+n+g+l+x+s+A+0+f+f+f+f+f+c+f+c+f+c+c+c+7+x+g+0+f+f+l+c+z+x+c+8+c+n+a+u+0+c+c+0+f+f+c+c+r+c+f+c+f+c+c+c+f+l+",
"0+n+c+n+c+u+l+l+l+D+0+y+k+k+A+0+0+f+c+A+0+c+c+0+r+r+r+u+D+D+s+c+k+f+r+g+c+n+k+y+n+f+8+u+a+k+n+n+6+s+z+8+6+n+f+f+f+c+c+8+D+l+A+c+",
"0+8+c+c+n+u+A+A+l+c+f+8+k+g+c+f+f+c+D+l+l+0+f+0+c+0+l+z+l+q+l+x+s+s+r+g+x+c+c+c+r+7+0+0+8+i+c+n+f+c+8+f+f+f+f+f+c+r+l+D+y+l+l+l+",
"g+y+l+8+c+s+u+l+i+c+f+f+g+g+c+f+f+s+l+0+0+c+f+c+0+l+t+t+x+z+z+x+c+x+x+r+s+f+n+c+c+0+c+0+r+c+f+f+f+f+c+c+7+c+c+c+0+a+t+2+y+l+l+l+",
"k+j+i+A+8+n+r+l+D+c+f+0+y+y+l+c+c+c+l+A+c+f+f+x+8+z+t+t+t+t+q+a+r+A+8+u+c+l+8+c+f+c+r+r+g+c+f+c+A+8+l+c+f+x+l+c+u+z+C+E+E+E+l+l+",
"l+j+k+A+c+c+f+g+x+u+g+l+l+y+y+i+c+c+i+c+c+f+c+l+z+t+C+C+C+x+l+C+z+s+r+a+g+f+f+t+0+f+n+f+f+f+f+k+A+D+y+0+s+a+A+c+z+2+C+t+G+y+l+2+",
"0+j+y+A+c+g+g+g+0+g+r+a+D+l+y+k+f+D+f+f+f+n+z+s+s+l+G+2+D+l+l+z+s+s+l+s+x+8+8+u+8+c+8+f+f+c+f+0+z+l+l+k+8+s+8+r+u+a+C+G+q+x+x+l+",
"l+k+k+s+n+f+f+f+g+y+c+s+s+A+l+7+n+g+n+c+8+t+x+z+c+A+l+l+D+D+8+s+x+s+8+s+f+f+c+c+f+l+s+f+g+f+r+c+8+c+c+f+f+c+c+A+c+A+l+D+z+z+u+s+",
"l+k+c+n+n+r+c+f+l+k+g+f+c+c+f+f+k+y+k+A+z+C+C+l+A+D+l+8+l+D+l+z+z+8+c+c+x+c+D+l+c+0+c+c+l+c+s+c+c+f+f+8+c+c+c+0+8+l+l+i+l+q+a+q+",
"y+A+u+u+c+f+c+c+l+i+g+7+c+f+c+c+k+g+n+g+c+l+l+A+A+0+0+0+0+A+A+u+l+A+0+8+c+c+0+l+f+f+8+x+D+l+f+c+c+c+c+8+l+l+g+c+0+0+A+0+i+8+A+s+",
"c+s+7+n+r+f+f+A+l+0+c+g+l+j+q+f+c+g+y+g+k+0+0+A+c+g+c+c+c+0+0+l+c+0+f+f+x+c+c+c+0+n+c+z+c+c+c+c+f+f+f+f+g+c+f+f+r+c+c+r+r+0+i+l+"};
