/* XPM */
static char * doom_green_xpm[] = {
"64 64 256 2",
"  	c #000000",
". 	c #0000FF",
"+ 	c #00FF00",
"@ 	c #FF0000",
"# 	c #00FFFF",
"$ 	c #FFFF00",
"% 	c #FF00FF",
"& 	c #FFFFFF",
"* 	c #7B7B7B",
"= 	c #7B7B7B",
"- 	c #7B7B7B",
"; 	c #7B7B7B",
"> 	c #7B7B7B",
", 	c #7B7B7B",
"' 	c #7B7B7B",
") 	c #7B7B7B",
"! 	c #7B7B7B",
"~ 	c #7B7B7B",
"{ 	c #7B7B7B",
"] 	c #7B7B7B",
"^ 	c #7B7B7B",
"/ 	c #7B7B7B",
"( 	c #7B7B7B",
"_ 	c #7B7B7B",
": 	c #7B7B7B",
"< 	c #7B7B7B",
"[ 	c #7B7B7B",
"} 	c #7B7B7B",
"| 	c #7B7B7B",
"1 	c #7B7B7B",
"2 	c #7B7B7B",
"3 	c #7B7B7B",
"4 	c #7B7B7B",
"5 	c #7B7B7B",
"6 	c #7B7B7B",
"7 	c #7B7B7B",
"8 	c #7B7B7B",
"9 	c #7B7B7B",
"0 	c #7B7B7B",
"a 	c #7B7B7B",
"b 	c #7B7B7B",
"c 	c #7B7B7B",
"d 	c #7B7B7B",
"e 	c #7B7B7B",
"f 	c #7B7B7B",
"g 	c #7B7B7B",
"h 	c #7B7B7B",
"i 	c #7B7B7B",
"j 	c #7B7B7B",
"k 	c #7B7B7B",
"l 	c #7B7B7B",
"m 	c #7B7B7B",
"n 	c #7B7B7B",
"o 	c #7B7B7B",
"p 	c #7B7B7B",
"q 	c #7B7B7B",
"r 	c #7B7B7B",
"s 	c #7B7B7B",
"t 	c #7B7B7B",
"u 	c #7B7B7B",
"v 	c #7B7B7B",
"w 	c #7B7B7B",
"x 	c #7B7B7B",
"y 	c #7B7B7B",
"z 	c #7B7B7B",
"A 	c #7B7B7B",
"B 	c #7B7B7B",
"C 	c #7B7B7B",
"D 	c #7B7B7B",
"E 	c #7B7B7B",
"F 	c #7B7B7B",
"G 	c #7B7B7B",
"H 	c #7B7B7B",
"I 	c #7B7B7B",
"J 	c #7B7B7B",
"K 	c #7B7B7B",
"L 	c #7B7B7B",
"M 	c #7B7B7B",
"N 	c #7B7B7B",
"O 	c #7B7B7B",
"P 	c #7B7B7B",
"Q 	c #7B7B7B",
"R 	c #7B7B7B",
"S 	c #7B7B7B",
"T 	c #7B7B7B",
"U 	c #7B7B7B",
"V 	c #7B7B7B",
"W 	c #7B7B7B",
"X 	c #7B7B7B",
"Y 	c #7B7B7B",
"Z 	c #7B7B7B",
"` 	c #7B7B7B",
" .	c #7B7B7B",
"..	c #7B7B7B",
"+.	c #7B7B7B",
"@.	c #7B7B7B",
"#.	c #7B7B7B",
"$.	c #7B7B7B",
"%.	c #7B7B7B",
"&.	c #7B7B7B",
"*.	c #7B7B7B",
"=.	c #7B7B7B",
"-.	c #7B7B7B",
";.	c #7B7B7B",
">.	c #7B7B7B",
",.	c #7B7B7B",
"'.	c #7B7B7B",
").	c #7B7B7B",
"!.	c #7B7B7B",
"~.	c #7B7B7B",
"{.	c #7B7B7B",
"].	c #7B7B7B",
"^.	c #7B7B7B",
"/.	c #7B7B7B",
"(.	c #7B7B7B",
"_.	c #7B7B7B",
":.	c #7B7B7B",
"<.	c #7B7B7B",
"[.	c #7B7B7B",
"}.	c #7B7B7B",
"|.	c #7B7B7B",
"1.	c #7B7B7B",
"2.	c #7B7B7B",
"3.	c #7B7B7B",
"4.	c #7B7B7B",
"5.	c #7B7B7B",
"6.	c #7B7B7B",
"7.	c #7B7B7B",
"8.	c #7B7B7B",
"9.	c #7B7B7B",
"0.	c #7B7B7B",
"a.	c #7B7B7B",
"b.	c #7B7B7B",
"c.	c #7B7B7B",
"d.	c #7B7B7B",
"e.	c #7B7B7B",
"f.	c #7B7B7B",
"g.	c #7B7B7B",
"h.	c #7B7B7B",
"i.	c #7B7B7B",
"j.	c #7B7B7B",
"k.	c #7B7B7B",
"l.	c #7B7B7B",
"m.	c #7B7B7B",
"n.	c #7B7B7B",
"o.	c #7B7B7B",
"p.	c #7B7B7B",
"q.	c #7B7B7B",
"r.	c #7B7B7B",
"s.	c #7B7B7B",
"t.	c #7B7B7B",
"u.	c #7B7B7B",
"v.	c #7B7B7B",
"w.	c #7B7B7B",
"x.	c #7B7B7B",
"y.	c #7B7B7B",
"z.	c #7B7B7B",
"A.	c #7B7B7B",
"B.	c #7B7B7B",
"C.	c #7B7B7B",
"D.	c #7B7B7B",
"E.	c #7B7B7B",
"F.	c #7B7B7B",
"G.	c #7B7B7B",
"H.	c #7B7B7B",
"I.	c #7B7B7B",
"J.	c #7B7B7B",
"K.	c #7B7B7B",
"L.	c #7B7B7B",
"M.	c #7B7B7B",
"N.	c #7B7B7B",
"O.	c #7B7B7B",
"P.	c #7B7B7B",
"Q.	c #7B7B7B",
"R.	c #7B7B7B",
"S.	c #7B7B7B",
"T.	c #7B7B7B",
"U.	c #7B7B7B",
"V.	c #7B7B7B",
"W.	c #7B7B7B",
"X.	c #7B7B7B",
"Y.	c #7B7B7B",
"Z.	c #7B7B7B",
"`.	c #7B7B7B",
" +	c #7B7B7B",
".+	c #7B7B7B",
"++	c #7B7B7B",
"@+	c #7B7B7B",
"#+	c #7B7B7B",
"$+	c #7B7B7B",
"%+	c #7B7B7B",
"&+	c #7B7B7B",
"*+	c #7B7B7B",
"=+	c #7B7B7B",
"-+	c #7B7B7B",
";+	c #7B7B7B",
">+	c #7B7B7B",
",+	c #7B7B7B",
"'+	c #7B7B7B",
")+	c #7B7B7B",
"!+	c #7B7B7B",
"~+	c #7B7B7B",
"{+	c #7B7B7B",
"]+	c #7B7B7B",
"^+	c #7B7B7B",
"/+	c #7B7B7B",
"(+	c #7B7B7B",
"_+	c #7B7B7B",
":+	c #7B7B7B",
"<+	c #7B7B7B",
"[+	c #7B7B7B",
"}+	c #7B7B7B",
"|+	c #7B7B7B",
"1+	c #7B7B7B",
"2+	c #7B7B7B",
"3+	c #7B7B7B",
"4+	c #7B7B7B",
"5+	c #7B7B7B",
"6+	c #7B7B7B",
"7+	c #7B7B7B",
"8+	c #7B7B7B",
"9+	c #7B7B7B",
"0+	c #7B7B7B",
"a+	c #7B7B7B",
"b+	c #7B7B7B",
"c+	c #7B7B7B",
"d+	c #7B7B7B",
"e+	c #7B7B7B",
"f+	c #7B7B7B",
"g+	c #7B7B7B",
"h+	c #7B7B7B",
"i+	c #7B7B7B",
"j+	c #7B7B7B",
"k+	c #7B7B7B",
"l+	c #7B7B7B",
"m+	c #5A4A31",
"n+	c #6A5241",
"o+	c #5A5A5A",
"p+	c #735A4A",
"q+	c #101010",
"r+	c #4A3929",
"s+	c #181818",
"t+	c #313920",
"u+	c #414141",
"v+	c #524131",
"w+	c #312910",
"x+	c #313131",
"y+	c #202908",
"z+	c #293118",
"A+	c #413118",
"B+	c #394129",
"C+	c #525239",
"D+	c #525252",
"E+	c #414A31",
"F+	c #101800",
"G+	c #202020",
"F+y+y+y+y+y+y+s+q+s+y+y+y+y+w+y+y+y+s+q+y+y+y+y+y+y+y+w+y+s+y+s+s+s+F+s+y+s+y+y+y+y+y+y+y+y+y+y+y+w+s+F+y+y+y+y+w+y+y+y+y+y+y+F+",
"y+y+y+y+t+t+t+y+s+y+y+t+t+G+t+y+w+y+y+s+y+y+t+t+t+B+B+B+B+t+y+y+y+s+y+y+s+y+y+y+t+t+t+t+t+B+t+y+y+t+t+y+s+B+B+B+B+A+A+t+t+t+t+y+",
"y+t+B+B+E+B+B+t+y+t+t+B+B+B+B+t+t+y+F+y+t+B+B+B+E+C+C+C+C+B+t+t+w+w+F+F+G+s+t+t+t+B+B+E+C+C+B+B+t+B+v+B+E+E+C+E+C+C+C+u+x+B+G+y+",
"y+t+B+B+t+B+t+y+y+B+y+y+t+B+B+B+t+y+F+y+t+B+B+E+E+E+C+v+E+B+t+t+w+F+F+F+F+s+t+t+t+B+B+E+C+C+B+B+y+B+E+B+E+E+C+E+C+C+C+B+t+B+G+y+",
"y+t+B+t+y+t+y+y+E+B+y+w+y+E+C+B+t+y+F+y+t+B+E+C+B+B+B+E+E+E+B+u+y+y+F+F+F+w+t+E+m+C+E+C+E+E+E+B+y+t+B+E+C+E+E+C+C+C+C+C+E+E+t+y+",
"y+t+B+t+w+y+y+y+t+B+t+y+y+t+E+E+t+F+y+t+B+B+E+B+B+B+B+E+E+E+B+t+t+y+y+y+y+y+t+B+E+E+E+E+C+E+B+B+t+t+E+B+E+E+E+E+B+E+C+C+E+B+t+y+",
"y+t+B+t+y+y+t+y+y+t+t+E+t+t+B+B+y+y+t+B+C+C+E+B+B+t+B+B+B+B+B+B+B+t+t+t+t+y+y+t+B+E+E+E+C+E+B+B+t+B+E+B+B+E+C+E+B+E+C+E+E+B+t+y+",
"y+y+t+y+t+t+w+t+y+x+B+B+E+t+B+t+y+y+B+C+C+C+E+B+t+t+B+B+B+t+t+x+t+B+B+B+B+t+F+F+y+t+t+B+C+C+B+B+B+E+E+B+B+t+t+B+B+B+B+B+B+B+t+y+",
"y+y+t+B+t+G+B+E+t+B+t+B+t+E+t+y+t+B+E+C+C+E+B+B+t+t+t+E+B+t+t+B+t+E+B+A+B+t+w+F+F+y+t+t+B+B+B+t+B+E+E+B+t+y+y+t+t+t+E+C+E+E+t+y+",
"y+y+B+w+B+t+B+E+E+E+B+B+B+B+y+t+B+E+C+E+E+E+B+B+B+w+t+E+E+B+t+t+t+B+B+B+B+t+y+F+F+y+t+B+B+B+B+B+B+B+B+B+t+y+y+B+B+t+B+E+E+E+B+y+",
"y+y+t+G+G+t+E+E+t+E+E+t+B+B+t+t+E+E+E+E+E+E+B+B+B+t+t+E+E+B+t+t+y+t+B+B+t+y+F+y+y+F+y+y+B+B+B+A+B+E+E+E+B+B+E+B+E+y+B+B+B+E+r+y+",
"y+y+G+w+x+B+B+B+B+E+B+E+B+t+t+B+B+E+E+E+E+E+E+t+E+E+E+B+B+B+B+t+t+t+t+y+y+F+y+t+t+y+F+y+y+t+t+B+E+C+C+E+E+B+B+E+E+y+t+E+t+B+B+y+",
"y+y+B+x+B+B+t+t+B+B+E+E+B+y+t+B+B+E+C+C+C+E+B+B+E+E+E+E+E+B+B+B+B+B+t+y+F+y+t+B+E+E+E+B+y+y+B+E+E+C+C+C+E+B+E+C+E+t+y+E+B+B+t+y+",
"y+t+B+B+t+B+B+B+B+B+B+E+t+y+B+E+E+E+m+C+C+E+B+B+E+E+E+E+E+t+t+B+E+B+y+y+y+t+E+E+E+E+C+E+t+y+y+B+B+E+E+E+B+t+C+C+E+B+y+B+B+E+t+y+",
"y+t+E+B+B+E+B+E+E+B+B+B+y+y+B+E+C+E+E+C+C+E+B+B+E+E+E+E+E+E+t+B+B+B+y+y+y+t+E+E+E+E+E+E+B+t+y+t+t+t+B+B+t+t+B+E+B+y+y+y+B+E+t+y+",
"y+t+E+E+E+E+B+E+B+B+t+t+y+t+t+E+E+E+E+E+C+C+E+B+B+E+E+E+E+E+B+B+B+y+t+t+y+B+E+E+E+E+E+E+B+y+y+t+t+B+t+y+y+t+t+B+y+y+t+y+y+B+y+y+",
"y+B+C+E+C+E+E+C+B+t+y+y+y+t+t+y+y+y+B+B+E+C+E+E+B+E+E+C+C+E+B+B+t+y+t+B+y+t+B+E+C+E+E+B+t+y+t+E+E+E+E+B+t+y+y+y+y+t+B+t+y+y+t+y+",
"y+r+C+E+C+E+E+B+B+w+w+y+y+t+E+E+B+y+y+t+B+E+E+B+B+t+B+E+E+t+t+t+y+t+B+B+t+y+t+E+C+E+E+B+y+y+B+E+C+C+E+B+t+y+y+y+t+B+B+E+E+B+y+y+",
"y+B+C+C+E+E+E+E+B+w+y+y+t+B+E+C+E+B+y+t+t+B+B+B+t+t+t+B+B+B+B+t+B+E+B+E+B+y+y+t+E+E+E+t+y+t+E+C+C+C+B+t+t+t+t+B+B+C+E+E+E+E+t+y+",
"y+B+E+C+C+E+B+B+B+w+y+t+B+B+E+m+C+E+t+y+t+t+t+t+B+E+B+B+E+C+E+E+B+B+E+B+E+B+t+y+t+E+B+y+y+B+C+C+B+t+t+t+B+t+B+B+B+C+E+B+E+C+t+y+",
"y+B+E+C+E+C+B+B+t+w+w+t+B+E+C+C+E+E+E+y+y+t+t+t+B+E+t+t+B+E+E+E+E+B+B+E+B+E+B+y+t+t+B+y+t+C+E+B+B+B+E+E+E+E+t+B+E+E+E+E+E+E+t+y+",
"y+B+E+E+C+E+t+t+y+w+t+B+E+C+E+E+C+C+C+y+y+y+t+t+t+E+t+t+B+E+B+E+C+B+B+E+E+E+B+t+y+y+t+y+B+E+B+B+B+E+E+E+E+E+B+B+E+E+C+E+E+C+B+y+",
"y+t+B+C+E+B+t+y+t+t+t+B+C+E+E+C+E+C+B+y+t+y+y+y+t+E+E+B+t+B+E+E+E+E+E+E+E+E+E+B+B+y+y+B+E+E+B+t+B+B+B+B+B+B+t+t+E+E+B+B+B+E+B+y+",
"y+y+w+w+t+t+y+t+t+t+B+r+E+C+C+E+C+C+t+C+C+E+B+y+B+E+E+E+t+B+E+E+E+E+E+C+C+C+E+E+B+y+y+B+B+B+B+E+E+E+E+E+E+B+t+t+E+E+E+E+E+E+t+y+",
"y+y+w+w+t+t+t+y+y+t+B+E+C+C+E+t+C+t+E+C+C+E+B+y+t+B+E+E+B+E+E+E+E+E+E+C+C+C+E+E+B+t+y+t+t+B+E+E+E+E+E+E+E+t+t+B+B+E+E+E+B+E+t+y+",
"y+y+t+t+t+B+B+y+F+F+y+B+E+C+E+C+C+E+t+B+E+E+B+y+t+t+E+B+B+E+E+C+C+E+E+C+C+C+C+E+E+t+t+t+B+B+E+E+C+C+C+C+B+B+E+C+E+B+B+t+B+B+y+y+",
"y+y+t+t+t+B+y+F+F+F+F+t+E+C+C+m+C+C+t+u+E+E+B+y+t+t+x+B+B+B+E+E+E+E+C+C+C+C+C+C+E+B+y+B+E+C+B+B+C+C+E+B+t+t+E+C+C+u+t+B+B+B+y+y+",
"y+w+t+t+t+y+F+F+F+F+F+y+B+E+E+E+B+t+B+E+C+C+E+y+y+t+t+E+E+E+B+E+E+C+C+C+C+C+C+C+E+B+B+C+E+C+C+E+E+E+B+t+B+B+B+C+C+B+B+t+t+t+y+y+",
"y+w+t+t+B+y+F+F+F+F+F+y+B+B+E+E+t+t+B+E+C+m+t+y+y+y+t+E+C+C+B+B+E+C+C+C+C+C+C+C+B+B+E+C+C+E+E+C+C+E+B+B+t+B+E+C+E+w+t+t+B+B+y+y+",
"y+y+t+t+B+t+t+y+F+F+F+F+B+B+B+y+y+t+B+E+C+B+y+F+F+y+t+C+C+C+E+B+E+C+C+C+C+C+C+E+B+B+E+C+C+E+E+t+E+C+B+t+t+t+C+C+t+t+t+t+E+E+y+y+",
"y+t+t+G+B+B+y+F+F+F+F+F+y+E+y+t+B+B+C+C+C+B+y+F+F+t+B+C+C+C+E+E+E+C+C+C+C+C+E+B+B+B+C+E+C+C+C+C+t+y+y+y+t+t+E+E+t+y+F+B+E+t+y+G+",
"s+s+t+E+E+B+F+F+F+y+y+F+F+y+B+E+E+B+E+C+C+B+y+F+t+B+B+E+C+C+E+C+C+C+C+C+C+m+B+B+t+B+C+C+C+C+C+C+E+t+y+y+y+t+t+t+y+F+y+B+B+B+t+y+",
"s+s+t+E+E+B+y+F+F+t+t+y+y+B+E+B+E+E+C+C+C+t+y+t+t+t+E+B+E+C+E+C+C+C+C+C+C+E+t+t+t+C+C+E+C+C+E+t+B+B+E+t+y+B+y+t+y+y+t+t+B+B+t+y+",
"y+y+t+B+B+x+t+y+F+y+t+x+B+E+B+B+E+E+C+E+C+E+y+y+y+y+t+t+B+E+E+C+E+E+C+C+E+B+y+t+B+C+C+C+C+C+C+B+B+B+B+y+t+E+y+B+B+B+t+t+B+B+t+y+",
"y+y+y+B+t+G+t+E+y+F+t+B+B+B+B+B+E+C+E+E+C+E+y+y+t+y+y+t+B+B+E+C+E+E+C+E+B+t+y+t+B+C+C+E+E+E+C+B+B+B+t+t+E+E+t+t+F+B+t+t+t+B+t+y+",
"y+y+B+y+y+t+B+B+y+F+t+B+B+B+E+B+B+C+B+E+C+y+y+t+E+t+y+y+y+B+E+E+C+C+E+B+y+y+y+t+B+B+B+B+E+E+B+B+t+t+t+t+E+E+t+t+t+E+C+B+B+B+y+y+",
"s+y+t+t+y+y+y+G+y+F+B+B+B+E+B+E+E+B+E+x+E+y+y+t+E+E+t+y+y+B+E+E+C+E+B+t+y+t+B+B+E+B+B+B+E+E+E+t+y+E+y+t+t+E+B+F+F+C+C+B+B+F+y+y+",
"y+y+t+t+y+F+F+F+F+y+E+t+E+B+B+B+u+C+E+E+E+t+t+E+C+E+t+t+E+t+E+B+E+E+B+t+t+B+C+E+C+E+E+B+y+B+E+B+t+B+E+B+B+B+B+t+F+E+E+C+B+F+F+y+",
"y+y+w+t+x+F+F+F+y+C+E+x+x+t+t+t+C+E+E+C+o+C+x+E+C+C+E+E+C+E+t+t+B+B+B+B+C+C+C+C+C+C+C+B+t+y+t+E+E+t+B+B+B+B+t+t+B+E+E+E+E+t+y+y+",
"y+y+w+w+t+y+F+y+B+B+B+t+t+t+B+B+C+C+C+C+n+C+t+E+C+C+E+B+C+p+E+w+y+t+C+E+C+C+C+C+C+C+E+B+t+t+x+E+E+E+t+B+B+B+t+t+B+E+E+B+B+E+y+y+",
"y+t+w+G+t+t+t+y+y+B+t+G+t+x+B+C+C+C+E+E+C+C+t+t+E+C+E+B+E+C+C+t+y+t+B+C+C+C+C+C+C+C+E+B+F+y+t+B+E+E+B+B+B+t+t+t+E+E+E+B+B+E+t+y+",
"y+t+t+t+t+t+t+w+B+E+t+t+B+E+E+C+C+E+E+E+C+C+E+B+y+E+C+E+t+E+E+t+y+y+t+E+C+C+C+C+C+C+E+t+F+t+t+B+E+E+B+B+B+E+C+C+E+C+C+E+F+B+F+y+",
"y+t+t+t+B+B+t+y+t+B+t+B+E+E+E+C+E+E+E+E+C+C+E+E+B+E+C+E+B+B+B+y+w+y+t+B+E+C+C+C+C+C+E+B+F+C+B+t+E+B+B+t+E+E+C+C+C+C+C+E+t+B+F+y+",
"y+t+B+B+B+t+y+y+t+t+t+B+B+E+E+E+C+E+E+E+C+E+E+B+E+B+C+B+y+E+t+y+y+B+t+B+E+E+C+C+C+C+C+E+B+E+C+E+B+E+B+E+C+C+C+C+C+C+E+E+B+E+B+y+",
"y+t+B+B+y+t+t+y+t+E+B+B+E+E+E+E+E+E+E+E+E+E+B+B+t+y+B+t+y+B+y+F+F+y+y+B+B+B+E+C+C+C+C+E+E+E+E+B+B+B+B+E+C+C+C+C+E+E+E+t+t+t+B+y+",
"y+B+E+y+y+y+t+t+t+t+B+B+t+B+t+E+E+E+E+C+C+C+E+B+B+B+t+B+E+C+y+F+y+y+F+y+t+B+r+B+E+E+C+E+E+E+B+B+B+B+B+E+C+E+E+B+B+t+t+t+E+E+A+y+",
"y+B+E+y+y+y+t+t+t+y+y+t+E+t+t+B+E+E+C+C+C+C+C+E+B+B+E+B+E+B+F+y+t+F+F+F+y+B+E+B+E+E+E+E+C+E+E+B+B+B+r+r+E+B+B+B+t+t+B+E+E+v+A+y+",
"y+t+t+y+y+t+t+t+t+y+y+y+B+E+t+B+B+E+C+C+C+C+C+C+B+B+E+y+E+B+F+t+t+F+F+y+y+y+t+t+E+E+E+C+C+E+E+B+B+B+B+B+B+B+t+t+t+r+E+E+E+E+B+y+",
"y+t+y+B+B+t+t+B+t+y+y+y+B+t+E+x+t+C+C+C+C+C+E+C+B+t+y+y+E+C+y+B+t+F+y+t+B+E+E+t+t+E+E+C+C+E+E+B+B+t+t+t+t+t+t+t+B+E+E+B+B+E+B+t+",
"y+t+y+B+t+t+t+B+E+t+t+y+y+y+y+t+s+E+E+C+C+C+E+E+t+y+y+y+E+E+y+t+y+y+y+t+B+E+E+E+t+t+E+E+E+E+B+B+B+t+y+y+y+B+B+t+t+E+E+E+E+v+B+w+",
"y+t+E+t+y+y+t+E+E+t+E+E+t+B+y+y+y+t+C+C+C+C+E+E+t+y+y+y+E+B+y+t+F+y+y+t+t+E+E+C+E+t+E+E+E+E+B+B+t+t+y+t+B+E+E+E+E+t+t+t+E+E+B+y+",
"t+y+t+y+y+y+t+B+B+B+E+B+E+B+t+y+y+y+E+C+o+C+C+E+t+y+y+y+B+B+y+y+F+t+y+y+y+B+E+E+C+t+B+B+E+B+B+t+y+y+y+B+B+E+v+E+E+E+v+t+t+t+t+y+",
"y+t+E+t+y+t+B+B+t+B+B+E+E+C+B+t+y+y+t+C+C+C+C+E+B+y+y+x+A+E+B+y+y+t+B+y+t+B+E+E+E+E+t+B+B+t+y+y+y+t+t+B+r+E+v+E+E+E+E+E+E+E+B+t+",
"y+t+E+B+B+t+B+C+B+B+E+B+E+C+C+E+C+t+t+m+C+C+E+E+B+y+y+B+E+B+B+t+F+y+t+y+t+B+B+E+E+E+B+y+y+y+y+y+t+B+B+B+B+E+E+E+E+E+E+r+E+E+B+t+",
"y+B+C+E+B+B+E+E+E+E+E+E+E+E+C+E+E+C+t+t+C+C+E+B+t+y+y+E+E+E+B+B+y+y+t+y+B+B+t+B+B+E+B+t+y+y+y+B+B+B+E+E+E+E+E+E+E+C+E+B+E+v+B+y+",
"y+r+E+E+E+E+E+C+E+C+E+C+E+C+E+E+E+E+E+t+E+C+C+E+y+y+B+E+E+E+B+t+t+y+y+t+B+B+t+t+t+B+E+t+B+r+y+B+B+E+E+E+B+r+E+C+C+C+E+B+E+E+B+y+",
"y+B+C+C+E+C+E+C+C+C+C+C+C+C+C+E+B+E+C+t+t+E+C+E+y+t+B+E+C+C+B+B+t+y+y+E+r+B+t+w+y+t+t+t+B+B+y+y+B+B+E+E+E+E+E+E+E+E+r+E+E+t+B+y+",
"y+t+m+C+E+C+E+C+C+C+C+C+E+C+C+C+E+y+E+B+y+B+E+E+y+B+E+E+C+E+E+u+t+y+B+E+E+B+t+y+y+t+B+B+G+t+t+y+t+B+B+E+B+E+C+E+E+t+t+t+t+t+r+y+",
"y+B+C+C+C+E+E+C+C+C+C+C+E+C+C+C+C+E+y+B+y+B+E+B+t+B+E+E+C+E+C+B+A+y+t+E+E+B+B+y+y+t+B+E+E+t+w+w+y+y+B+B+B+E+E+E+t+t+t+E+E+E+B+y+",
"y+B+C+E+C+C+C+C+C+E+E+C+E+C+C+E+m+C+C+y+y+t+t+t+B+E+E+C+C+E+E+B+B+y+y+t+t+t+t+t+B+B+E+E+C+t+t+G+G+y+t+B+t+B+E+E+t+t+E+E+E+E+t+y+",
"y+t+C+E+C+E+C+C+C+C+C+C+C+C+C+C+C+E+E+C+y+y+y+t+B+C+E+E+C+E+E+B+t+w+y+y+w+y+B+B+B+E+E+E+C+B+t+y+w+t+y+y+t+B+E+E+t+E+E+E+E+C+t+y+",
"y+B+C+E+t+C+C+E+C+C+E+C+C+C+C+E+E+C+C+C+B+y+y+t+B+E+E+B+C+E+E+B+y+w+y+w+y+y+B+E+E+E+E+C+E+x+t+w+w+w+y+y+t+t+B+E+B+E+E+B+E+C+t+y+",
"y+y+t+t+B+t+t+B+t+B+B+B+t+B+t+t+B+t+B+t+y+y+w+t+t+t+t+t+t+t+t+y+y+s+y+y+y+y+y+t+t+B+B+B+B+y+y+y+y+y+y+y+y+y+y+y+t+t+t+t+t+t+y+y+",
"y+y+y+y+s+y+y+y+y+y+y+y+w+y+y+y+y+y+y+y+y+y+y+y+y+y+y+y+y+y+y+y+F+y+y+y+F+s+y+y+y+y+y+y+y+s+y+y+F+s+s+s+s+F+F+y+y+y+y+y+y+y+y+s+"};
